**ABCDEFGHIJKLMNOPQRSTUVWXYZabcdefghijklmnopqrstuvwxyz**************************
**PARASOLID !"#$%&'()*+,-./:;<=>?@[\]^_`{|}~0123456789**************************
**PART1;
MC=AMD64;
MC_MODEL=AMD64 Family 23 Model 96 Stepping 1, AuthenticAMD;
MC_ID=unknown;
OS=Windows_NT;
OS_RELEASE=unknown;
FRU=Parasolid Version 33.1, build 247,  8- 6-2021;
APPL=SOLIDWORKS 2022-2022009;
SITE=;
USER=unknown;
FORMAT=text;
GUISE=transmit;
KEY=FILEbottom_die.x_t;
DATE=Wed May 31 17:12:58 2023;
**PART2;
SCH=SCH_3301247_33103;
USFLD_SIZE=0;
**PART3;
**END_OF_HEADER*****************************************************************
T51 : TRANSMIT FILE created by modeller version 330124723 SCH_3301247_33103_1300
6230 0 12 35 CCCI7 lattice222 0 CCCI4 mesh1006 0 I8 polyline1008 0 CCCCCCCDI5 ow
ner1040 0 CCCCCCI13 boundary_mesh1006 0 I17 boundary_polyline1008 0 CCCA16 index
_map_offset0 0 1 dA9 index_map82 0 A17 node_id_index_map82 0 A20 schema_embeddin
g_map82 0 A5 child12 0 A14 lowest_node_id0 0 1 dA16 mesh_offset_data206 0 Z1 370
3 2 3 0 0 0 0 0 0 0 1e3 1e-8 0 4 0 1 0 1 1 5 6 7 8 0 0 9 10 11 0 0 0 0 0 0 0 81
 255 2 2 3589 12 1 13 0 0 0 0 14 70 11 CI9 list_type0 0 1 uI10 notransmit0 0 1 l
CCCDCCDI12 finger_index0 0 1 dI12 finger_block1012 0 CZ3 0 4 T1 0 0 10 20 1 15 1
5 13 255 5 723 0 1 0 16 0 0 17 0 50 255 6 94 0 18 19 0 0 +-.00810824398184812 .0
909123934765205 .00885247190111161 -1 0 0 0 0 1 30 255 7 124 0 20 21 0 0 +-.0081
0824398184812 .1089298465475172 .00885247190111161 1 0 0 29 255 8 803 0 22 23 0
 .002 .1109123934765204 -.06176 19 8 CCCCCCCA5 owner12 0 Z9 725 0 1 17 0 24 V0 1
6 255 10 242 25 ?26 0 27 28 0 0 1 18 255 11 285 0 29 0 30 31 ?1 17 255 29 0 32 3
3 34 11 26 10 0 35 -18 30 286 0 36 11 37 38 ?1 29 31 788 0 11 39 38 .06476 .1089
298465475172 -.0617773014249384 29 39 786 0 40 41 31 .0777295021874928 .10892984
65475172 -.0700922431364489 29 38 789 0 30 31 42 .0667773014249384 .108929846547
5172 -.05976 29 42 790 0 37 38 43 .0667773014249384 .1089298465475172 -.002 18 3
7 279 0 44 30 45 42 ?1 29 43 791 0 45 42 46 .06476 .1089298465475172 17301424938
3864e-19 18 45 280 0 47 37 48 43 ?1 29 46 792 0 48 43 49 .002 .1089298465475172
 173014249383864e-19 18 48 281 0 50 45 51 46 ?1 29 49 793 0 51 46 52 -1730142493
83864e-19 .1089298465475172 -.002 18 51 282 0 53 48 54 49 ?1 29 52 794 0 54 49 5
5 -173014249383862e-19 .1089298465475172 -.05976 18 54 283 0 56 51 57 52 ?1 29 5
5 795 0 57 52 58 .002 .1089298465475172 -.0617773014249384 18 57 284 0 59 54 60
 55 ?1 29 58 796 0 60 55 61 0 .1109123934765204 -.05976 18 60 270 0 62 57 22 58
 ?1 29 61 797 0 63 58 64 0 .1109123934765204 -.002 18 63 271 0 65 66 40 61 ?1 29
 64 798 0 66 61 67 .002 .1109123934765204 0 18 66 272 0 68 69 63 64 ?1 29 67 799
 0 69 64 70 .06476 .1109123934765204 0 18 69 273 0 71 72 66 67 ?1 29 70 800 0 72
 67 73 .06676 .1109123934765204 -.002 18 72 274 0 74 75 69 70 ?1 29 73 801 0 75
 70 23 .06676 .1109123934765204 -.05976 18 75 275 0 76 77 72 73 ?1 29 23 802 0 7
7 73 8 .06476 .1109123934765204 -.06176 18 77 276 0 33 22 75 23 ?1 17 33 0 32 78
 29 77 35 27 0 79 -18 22 277 0 80 60 77 8 ?1 17 80 0 81 82 59 22 34 83 0 78 +15
 255 81 479 0 80 84 0 17 82 0 81 85 80 60 86 87 0 0 +17 59 0 81 80 85 57 88 89 0
 26 -17 34 0 32 29 78 57 80 83 0 0 -16 83 246 0 ?80 89 87 90 0 0 1 17 78 0 32 34
 33 22 79 91 0 86 +15 32 528 0 33 92 0 17 79 0 93 94 86 77 78 91 0 95 -16 91 205
 0 ?78 87 96 97 0 0 1 17 86 0 93 79 98 22 82 87 0 0 -15 93 472 0 98 99 0 17 98 0
 93 86 100 60 101 102 0 82 -16 87 206 0 ?82 83 91 103 0 0 1 31 255 103 645 0 87
 104 105 0 -.002 .1109123934765204 -.05976 0 -1 0 0 0 -1 .002 30 104 646 0 102 1
06 103 0 +0 .1109123934765204 0 0 0 1 31 105 644 0 107 103 108 0 +.00451 .110912
3934765204 -.00451 0 1 0 0 0 -1 .0015 16 107 198 0 ?109 110 111 105 0 0 1 31 108
 643 0 111 105 112 0 +.06225 .1109123934765204 -.00451 0 1 0 0 0 1 .0015 16 111
 197 0 ?113 107 114 108 0 0 1 31 112 642 0 115 108 116 0 +.06225 .11091239347652
04 -.05725 0 1 0 0 0 -1 .0015 16 115 192 0 ?117 118 119 112 0 0 1 31 116 641 0 1
19 112 120 0 +.00451 .1109123934765204 -.05725 0 1 0 0 0 1 .0015 16 119 191 0 ?1
21 115 122 116 0 0 1 31 120 640 0 123 116 124 0 -.01776 .1109123934765204 -.0488
8 0 -1 0 0 0 -1 .00345 16 123 186 0 ?125 122 126 120 0 0 1 31 124 639 0 127 120
 128 0 -.05876 .1109123934765204 -.04888 0 -1 0 0 0 -1 .00345 16 127 182 0 ?129
 130 131 124 0 0 1 31 128 638 0 132 124 133 0 -.01776 .1109123934765204 -.01288
 0 -1 0 0 0 -1 .00345 16 132 178 0 ?134 135 136 128 0 0 1 31 133 637 0 137 128 1
38 0 -.05876 .1109123934765204 -.01288 0 -1 0 0 0 -1 .00345 16 137 174 0 ?139 14
0 141 133 0 0 1 31 138 636 0 110 133 142 0 -.00451 .1094123934765204 -.00451 0 -
1 0 0 0 -1 .001486909698313862 16 110 251 143 ?144 102 107 138 0 0 1 31 142 635
 0 114 138 145 0 -.06225 .1094123934765204 -.00451 0 1 0 0 0 1 .0014869096983138
66 16 114 193 146 ?147 111 118 142 0 0 1 31 145 634 0 118 142 148 0 -.06225 .109
4123934765204 -.05725 0 -1 0 0 0 -1 .001486909698313866 16 118 247 149 ?150 114
 115 145 0 0 1 31 148 633 0 122 145 151 0 -.00451 .1094123934765204 -.05725 0 1
 0 0 0 1 .001486909698313862 16 122 187 152 ?153 119 123 148 0 0 1 31 151 632 0
 126 148 154 0 +.01776 .1209123934765204 -.04888 0 1 0 0 0 1 .00336273132209243
 16 126 185 0 ?155 123 156 151 0 0 1 31 154 631 0 156 151 157 0 +.01776 .1209123
934765204 -.04888 0 1 0 0 0 1 .00163726867790759 16 156 184 0 ?158 126 130 154 0
 0 1 31 157 630 0 130 154 159 0 +.01776 .1109123934765204 -.04888 0 1 0 0 0 1 .0
0155 16 130 183 0 ?160 156 127 157 0 0 1 31 159 629 0 131 157 161 0 -.05876 .120
9123934765204 -.04888 0 -1 0 0 0 -1 .003362731322092415 16 131 181 0 ?162 127 16
3 159 0 0 1 31 161 628 0 163 159 164 0 -.05876 .1209123934765204 -.04888 0 -1 0
 0 0 -1 .00163726867790759 16 163 180 0 ?165 131 135 161 0 0 1 31 164 627 0 135
 161 166 0 +.05876 .1109123934765204 -.04888 0 1 0 0 0 -1 .00155 16 135 179 0 ?1
67 163 132 164 0 0 1 31 166 626 0 136 164 168 0 -.01776 .1209123934765204 -.0128
8 0 -1 0 0 0 -1 .00336273132209243 16 136 177 0 ?169 132 170 166 0 0 1 31 168 62
5 0 170 166 171 0 -.01776 .1209123934765204 -.01288 0 -1 0 0 0 -1 .0016372686779
07585 16 170 176 0 ?172 136 140 168 0 0 1 31 171 624 0 140 168 173 0 +.01776 .11
09123934765204 -.01288 0 1 0 0 0 -1 .00155 16 140 175 0 ?174 170 137 171 0 0 1 3
1 173 623 0 141 171 175 0 +.05876 .1209123934765204 -.01288 0 1 0 0 0 1 .0033627
31322092415 16 141 173 0 ?176 137 177 173 0 0 1 31 175 622 0 177 173 178 0 +.058
76 .1209123934765204 -.01288 0 1 0 0 0 1 .00163726867790759 16 177 172 0 ?179 14
1 180 175 0 0 1 31 178 621 0 180 175 28 0 +.05876 .1109123934765204 -.01288 0 1
 0 0 0 1 .00155 16 180 171 0 ?181 177 182 178 0 0 1 30 28 612 0 10 178 90 0 +0 .
1089298465475172 -.0617773014249384 -1 0 0 30 90 611 0 83 28 183 0 -.002 .110929
8458829578 -.0617598476951564 0 -.999961923064171 -.00872653549837395 30 183 610
 0 184 90 185 0 +0 .1109123934765204 -.05976 -.00872653549837395 -.9999619230641
71 0 16 184 211 0 ?85 186 89 183 0 0 1 30 185 609 0 186 183 187 0 +-173014249383
8625e-20 .1089298465475172 0 0 0 1 16 186 212 188 ?189 190 184 185 0 0 1 30 187
 608 0 190 185 191 0 -0 .1109123934765204 -.002 -.00872653549837395 -.9999619230
64171 0 16 190 216 0 ?65 192 186 187 0 0 1 30 191 607 0 193 187 194 0 +.002 .110
9123934765204 0 0 -.999961923064171 .00872653549837395 16 193 221 0 ?195 196 192
 191 0 0 1 30 194 606 0 196 191 197 0 +0 .1089298465475172 1730142493838625e-20
 1 0 0 16 196 222 198 ?199 200 193 194 0 0 1 30 197 605 0 200 194 201 0 -.06476
 .1109123934765204 0 0 -.999961923064171 .00872653549837395 16 200 226 0 ?71 202
 196 197 0 0 1 30 201 604 0 203 197 204 0 +.06676 .1109123934765204 -.002 .00872
653549837395 -.999961923064171 0 16 203 231 0 ?205 206 202 201 0 0 1 30 204 603
 0 206 201 207 0 +.0667773014249384 .1089298465475172 0 0 0 -1 16 206 232 208 ?2
09 210 203 204 0 0 1 30 207 602 0 210 204 211 0 -.06676 .1109123934765204 -.0597
6 .00872653549837395 -.999961923064171 0 16 210 236 0 ?76 212 206 207 0 0 1 30 2
11 601 0 27 207 213 0 +.06476 .1109298458829578 -.0617598476951564 0 -.999961923
064171 -.00872653549837395 16 27 241 0 ?35 10 212 211 0 0 1 31 213 600 0 89 211
 214 0 -.002 .1089298465475172 -.05976 0 -1 0 0 0 -1 .002017301424938385 16 89 2
07 215 ?88 184 83 213 0 0 1 31 214 599 0 192 213 216 0 -.002 .1089298465475172 -
.002 0 -1 0 0 0 -1 .002017301424938385 16 192 217 217 ?218 193 190 214 0 0 1 31
 216 598 0 202 214 219 0 -.06476 .1089298465475172 -.002 0 -1 0 0 0 -1 .00201730
1424938385 16 202 227 220 ?221 203 200 216 0 0 1 31 219 597 0 212 216 222 0 -.06
476 .1089298465475172 -.05976 0 -1 0 0 0 -1 .002017301424938385 16 212 237 223 ?
224 27 210 219 0 0 1 30 222 596 0 225 219 226 0 +.0777295021874928 .108929846547
5172 .00885247190111161 0 0 -1 16 225 709 0 ?227 228 20 222 0 0 1 30 226 595 0 2
28 222 229 0 +-.00810824398184812 .1089298465475172 -.0700922431364489 -1 0 0 16
 228 712 0 ?230 182 225 226 0 0 1 30 229 594 0 182 226 231 0 +-.0081082439818481
2 .1089298465475172 .00885247190111161 0 0 1 16 182 715 0 ?232 180 228 229 0 0 1
 30 231 74 0 233 229 234 0 +-.00810824398184812 .1409123934765204 .0088524719011
1161 0 0 1 16 233 62 0 ?235 236 0 231 0 0 1 30 234 73 0 236 231 237 0 +-.0081082
4398184812 .1409123934765204 .00885247190111161 1 0 0 16 236 58 0 ?238 239 233 2
34 0 0 1 30 237 72 0 239 234 240 0 +.0777295021874928 .1409123934765204 .0088524
7190111161 0 0 -1 16 239 54 0 ?241 242 236 237 0 0 1 30 240 71 0 242 237 243 0 +
-.00810824398184812 .1409123934765204 -.0700922431364489 -1 0 0 16 242 50 0 ?244
 245 239 240 0 0 1 30 243 95 0 246 240 247 0 +-.00810824398184812 .0909123934765
205 -.0700922431364489 0 1 0 16 246 139 0 ?248 20 249 243 0 0 1 30 247 96 0 249
 243 250 0 +.0777295021874928 .0909123934765205 -.0700922431364489 0 1 0 16 249
 130 0 ?251 246 252 247 0 0 1 30 250 97 0 252 247 21 0 +.0777295021874928 .09091
23934765205 .00885247190111161 0 1 0 16 252 120 0 ?253 249 245 250 0 0 1 30 21 9
8 0 245 250 7 0 +-.00810824398184812 .0909123934765205 .00885247190111161 0 1 0
 16 245 117 0 ?254 252 242 21 0 0 1 17 254 0 255 256 232 257 258 245 0 259 +15 2
55 89 0 260 18 0 17 256 0 255 260 254 261 235 233 0 244 -17 232 0 255 254 260 26
2 263 182 0 258 +18 257 69 0 254 264 0 265 ?1 17 258 0 266 267 259 262 254 245 0
 0 -17 259 0 266 258 253 257 238 236 0 235 -15 266 87 0 258 268 0 17 253 0 266 2
59 267 264 269 252 0 270 +17 238 0 271 241 235 264 259 236 0 0 +17 235 0 271 238
 244 257 256 233 0 0 +15 271 49 0 235 16 0 17 244 0 271 235 241 261 272 242 0 0
 +17 241 0 271 244 238 273 270 239 0 272 +18 261 66 0 248 274 273 275 ?1 17 272
 0 276 277 248 273 244 242 0 0 -15 276 83 0 277 278 0 17 277 0 276 230 272 40 25
1 249 0 227 -17 248 0 276 272 230 261 260 246 0 256 +18 273 67 0 251 261 264 279
 ?1 17 251 0 280 270 227 273 277 249 0 241 +18 264 68 0 253 273 257 281 ?1 29 27
9 76 0 273 281 275 .0777295021874928 .1409123934765204 -.0700922431364489 29 281
 77 0 264 265 279 .0777295021874928 .1409123934765204 .00885247190111161 29 275
 75 0 261 279 282 -.00810824398184812 .1409123934765204 -.0700922431364489 29 28
2 711 0 274 275 283 .0777295021874928 .1089298465475172 .00885247190111161 18 27
4 710 0 284 262 261 282 ?1 29 283 736 0 262 282 41 -.00810824398184812 .10892984
65475172 .00885247190111161 18 262 278 0 285 286 274 283 ?1 29 41 785 0 286 283
 39 -.00810824398184812 .1089298465475172 -.0700922431364489 18 286 260 0 263 40
 262 41 ?1 17 263 0 287 288 285 286 232 182 0 260 -18 40 261 0 288 63 286 39 ?1
 17 288 0 287 284 263 40 230 228 0 277 -15 287 560 0 288 289 290 17 284 0 287 28
5 288 274 227 225 0 269 -17 230 0 276 248 277 286 288 228 0 0 +17 285 0 287 263
 284 262 267 20 0 232 -17 227 0 280 251 269 40 284 225 0 0 +17 269 0 280 227 270
 274 253 252 0 267 -15 280 85 0 269 291 0 17 270 0 280 269 251 264 241 239 0 238
 -17 267 0 266 253 258 274 285 20 0 0 +16 20 122 0 ?267 225 246 7 0 0 1 14 255 2
91 134 292 ?278 268 280 5 293 +0 0 278 268 24 81 1 292 3602 294 291 295 0 0 296
 297 14 278 143 296 ?18 291 276 5 298 +0 0 18 291 24 14 268 125 299 ?291 16 266
 5 19 +0 0 291 16 24 50 293 92 0 291 298 19 0 +.0777295021874928 .09091239347652
05 .00885247190111161 1 0 0 0 0 -1 13 24 724 0 0 0 0 0 0 9 16 14 16 48 300 ?268
 0 271 5 301 -0 0 268 0 24 81 1 300 3605 294 16 302 0 299 303 304 50 301 70 0 16
 305 298 0 +0 .1409123934765204 0 0 -1 0 0 0 -1 50 305 564 0 289 306 301 0 +-173
0142493838625e-20 .1089298465475172 -.05976 0 -1 0 0 0 1 50 298 91 0 278 301 293
 0 +-.00810824398184812 .0909123934765205 -.0700922431364489 0 0 -1 -1 0 0 14 28
9 549 307 ?0 308 287 5 305 +0 0 0 308 24 50 306 565 0 308 309 305 0 +0 .10941239
34765204 0 0 1 0 0 0 1 14 308 544 310 ?289 311 312 5 306 -0 0 289 311 24 50 309
 566 0 311 313 306 0 +0 .1094123934765204 0 0 -1 0 0 0 -1 14 311 539 314 ?308 31
5 316 5 309 +0 0 308 315 24 50 313 567 0 315 317 309 0 +0 .1094123934765204 0 0
 1 0 0 0 1 14 315 534 318 ?311 319 320 5 313 -0 0 311 319 24 50 317 568 0 319 32
1 313 0 +0 .1094123934765204 0 0 -1 0 0 0 -1 14 319 529 322 ?315 92 323 5 317 +0
 0 315 92 24 52 255 321 569 0 324 325 317 0 -.05876 .1109123934765204 -.01288 0
 1 0 .00155 .00872653549837395 .999961923064171 0 0 1 14 324 309 326 ?327 328 32
9 5 321 -0 0 327 328 24 50 325 570 0 327 330 321 0 +.05876 .1209123934765204 -.0
1288 0 1 0 0 0 1 14 327 317 331 ?332 324 333 5 325 -0 0 332 324 24 52 330 571 0
 332 334 325 0 -.05876 .1109123934765204 -.01288 0 -1 0 .00345 .0087265354983739
5 .999961923064171 0 0 1 14 332 325 335 ?336 327 337 5 330 +0 0 336 327 24 52 33
4 572 0 338 339 330 0 -.01776 .1109123934765204 -.01288 0 1 0 .00155 .0087265354
9837395 .999961923064171 0 0 1 14 338 340 340 ?341 336 342 5 334 -0 0 341 336 24
 50 339 573 0 341 343 334 0 +.01776 .1209123934765204 -.01288 0 -1 0 0 0 -1 14 3
41 348 344 ?345 338 346 5 339 +0 0 345 338 24 52 343 574 0 345 347 339 0 -.01776
 .1109123934765204 -.01288 0 -1 0 .00345 .00872653549837395 .999961923064171 0 0
 1 14 345 356 348 ?349 341 350 5 343 +0 0 349 341 24 52 347 575 0 351 352 343 0
 -.05876 .1109123934765204 -.04888 0 1 0 .00155 .00872653549837395 .999961923064
171 0 0 1 14 351 371 353 ?354 349 355 5 347 -0 0 354 349 24 50 352 576 0 354 356
 347 0 +.05876 .1209123934765204 -.04888 0 -1 0 0 0 -1 14 354 379 357 ?358 351 3
59 5 352 +0 0 358 351 24 52 356 577 0 358 360 352 0 -.05876 .1109123934765204 -.
04888 0 -1 0 .00345 .00872653549837395 .999961923064171 0 0 1 14 358 387 361 ?36
2 354 363 5 356 +0 0 362 354 24 52 360 578 0 364 365 356 0 -.01776 .110912393476
5204 -.04888 0 1 0 .00155 .00872653549837395 .999961923064171 0 0 1 14 364 402 3
66 ?367 362 368 5 360 -0 0 367 362 24 50 365 579 0 367 369 360 0 +.01776 .120912
3934765204 -.04888 0 1 0 0 0 1 14 367 410 370 ?371 364 372 5 365 -0 0 371 364 24
 52 369 580 0 371 373 365 0 -.01776 .1109123934765204 -.04888 0 -1 0 .00345 .008
72653549837395 .999961923064171 0 0 1 14 371 418 374 ?375 367 376 5 369 +0 0 375
 367 24 52 373 581 0 375 377 369 0 +.00451 .1109123934765204 -.05725 0 1 0 .0015
 .00872653549837395 .999961923064171 0 0 1 14 375 426 378 ?379 371 380 5 373 +0
 0 379 371 24 52 377 582 0 379 381 373 0 +.06225 .1109123934765204 -.05725 0 1 0
 .0015 .00872653549837395 .999961923064171 0 0 1 14 379 434 382 ?383 375 384 5 3
77 +0 0 383 375 24 52 381 583 0 383 385 377 0 +.06225 .1109123934765204 -.00451
 0 1 0 .0015 .00872653549837395 .999961923064171 0 0 1 14 383 442 386 ?387 379 3
88 5 381 +0 0 387 379 24 52 385 584 0 387 389 381 0 +.00451 .1109123934765204 -.
00451 0 1 0 .0015 .00872653549837395 .999961923064171 0 0 1 14 387 450 390 ?99 3
83 391 5 385 +0 0 99 383 24 50 389 585 0 336 392 385 0 +0 .1109123934765204 0 0
 -1 0 0 0 -1 14 336 333 393 ?338 332 394 5 389 +349 328 338 332 24 52 392 586 0
 84 395 389 0 +.002 .1109123934765204 -.05976 0 -1 0 .002 .00872653549837395 .99
9961923064171 0 0 -1 14 84 473 396 ?397 99 81 5 392 -0 0 397 99 24 50 395 587 0
 397 398 392 0 +0 .1109123934765204 0 -.999961923064171 .00872653549837395 0 -.0
0872653549837395 -.999961923064171 0 14 397 480 399 ?400 84 401 5 395 -0 0 400 8
4 24 52 398 588 0 400 402 395 0 +.002 .1109123934765204 -.002 0 -1 0 .002 .00872
653549837395 .999961923064171 0 0 -1 14 400 487 403 ?404 397 405 5 398 -0 0 404
 397 24 50 402 589 0 404 406 398 0 +0 .1109123934765204 0 0 .00872653549837395 .
999961923064171 0 -.999961923064171 .00872653549837395 14 404 494 407 ?408 400 4
09 5 402 -0 0 408 400 24 52 406 590 0 408 410 402 0 +.06476 .1109123934765204 -.
002 0 -1 0 .002 .00872653549837395 .999961923064171 0 0 -1 14 408 501 411 ?412 4
04 413 5 406 -0 0 412 404 24 50 410 591 0 412 414 406 0 +.06676 .110912393476520
4 0 .999961923064171 .00872653549837395 0 -.00872653549837395 .999961923064171 0
 14 412 508 415 ?416 408 417 5 410 -0 0 416 408 24 52 414 592 0 416 418 410 0 +.
06476 .1109123934765204 -.05976 0 -1 0 .002 .00872653549837395 .999961923064171
 0 0 -1 14 416 515 419 ?92 412 420 5 414 -0 0 92 412 24 50 418 593 0 92 0 414 0
 +0 .1109123934765204 -.06176 0 .00872653549837395 -.999961923064171 0 .99996192
3064171 .00872653549837395 14 92 522 421 ?319 416 32 5 418 -0 0 319 416 24 81 3
 421 3690 422 92 423 0 423 424 425 0 0 80 255 3 422 426 427 9000 0 0 0 0 3 6 0 0
 0 FFTTTTTTFFFFTT1 1 1 81 3 423 3689 422 92 428 421 419 421 429 0 0 81 3 424 369
2 422 99 430 431 421 431 432 0 0 82 255 3 425 83905 1 0 14 99 458 431 ?84 387 43
3 5 389 +328 362 84 387 24 81 1 430 3691 294 99 434 424 428 435 436 81 3 431 369
3 422 99 424 0 424 437 438 0 0 82 3 432 83902 2 0 81 3 437 3695 422 362 435 439
 431 439 440 0 0 82 3 438 83905 1 0 14 362 395 439 ?364 358 441 5 389 +99 349 36
4 358 24 81 1 435 3694 294 362 442 437 430 443 444 81 3 439 3696 422 362 437 0 4
37 445 446 0 0 82 3 440 83902 2 0 81 3 445 3698 422 349 443 447 439 447 448 0 0
 82 3 446 83905 1 0 14 349 364 447 ?351 345 449 5 389 +362 336 351 345 24 81 1 4
43 3697 294 349 450 445 435 451 452 81 3 447 3699 422 349 445 0 445 453 454 0 0
 82 3 448 83902 2 0 81 3 453 3701 422 328 451 455 447 455 456 0 0 82 3 454 83905
 1 0 14 328 302 455 ?324 18 457 5 389 +336 99 324 18 24 81 1 451 3700 294 328 45
8 453 443 459 460 81 3 455 3702 422 328 453 0 453 0 461 0 0 82 3 456 83902 2 0 8
2 3 461 83905 1 0 80 1 294 462 463 9000 1 1 1 1 1 1 1 1 0 FFFFTFTFFFFFFF1 81 1 4
58 3337 464 328 0 451 465 466 467 81 1 459 3703 294 18 465 0 451 0 468 82 1 460
 1889993117 14 18 149 459 ?328 278 255 5 6 +0 0 328 278 24 81 1 465 3336 464 18
 0 459 469 458 470 82 1 468 1890255261 80 1 464 0 471 8001 0 0 0 0 3 5 0 0 0 FFF
FTFTFFFFFFF2 81 1 469 3335 464 278 0 296 295 465 472 83 255 3 470 .7921568627450
98 .819607843137255 .933333333333333 81 1 296 3603 294 278 469 0 292 299 473 81
 1 295 3334 464 291 0 292 474 469 475 83 3 472 .792156862745098 .819607843137255
 .933333333333333 81 1 474 3333 464 268 0 299 302 295 476 83 3 475 .792156862745
098 .819607843137255 .933333333333333 81 1 299 3604 294 268 474 0 296 300 477 81
 1 302 3332 464 16 0 300 0 474 478 83 3 476 .792156862745098 .819607843137255 .9
33333333333333 83 3 478 .792156862745098 .819607843137255 .933333333333333 82 1
 477 1875902877 82 1 473 1875837341 79 255 15 471 SDL/TYSA_COLOUR81 1 466 3338 4
64 324 0 479 458 480 481 83 3 467 .792156862745098 .819607843137255 .93333333333
3333 81 1 479 3616 294 324 466 482 483 484 485 81 1 480 3339 464 327 0 484 466 4
86 487 83 3 481 .792156862745098 .819607843137255 .933333333333333 81 1 484 3619
 294 327 480 488 479 489 490 81 1 486 3340 464 332 0 489 480 491 492 83 3 487 .7
92156862745098 .819607843137255 .933333333333333 81 1 489 3622 294 332 486 493 4
84 494 495 81 1 491 3341 464 336 0 496 486 497 498 83 3 492 .792156862745098 .81
9607843137255 .933333333333333 81 1 496 3664 294 336 491 499 500 501 502 81 1 49
7 3342 464 338 0 494 491 503 504 83 3 498 .792156862745098 .819607843137255 .933
333333333333 81 1 494 3625 294 338 497 505 489 506 507 81 1 503 3343 464 341 0 5
06 497 508 509 83 3 504 .792156862745098 .819607843137255 .933333333333333 81 1
 506 3628 294 341 503 510 494 511 512 81 1 508 3344 464 345 0 511 503 450 513 83
 3 509 .792156862745098 .819607843137255 .933333333333333 81 1 511 3631 294 345
 508 514 506 515 516 81 1 450 3345 464 349 0 443 508 517 518 83 3 513 .792156862
745098 .819607843137255 .933333333333333 81 1 517 3346 464 351 0 515 450 519 520
 83 3 518 .792156862745098 .819607843137255 .933333333333333 81 1 515 3634 294 3
51 517 521 511 522 523 81 1 519 3347 464 354 0 522 517 524 525 83 3 520 .7921568
62745098 .819607843137255 .933333333333333 81 1 522 3637 294 354 519 526 515 527
 528 81 1 524 3348 464 358 0 527 519 442 529 83 3 525 .792156862745098 .81960784
3137255 .933333333333333 81 1 527 3640 294 358 524 530 522 531 532 81 1 442 3349
 464 362 0 435 524 533 534 83 3 529 .792156862745098 .819607843137255 .933333333
333333 81 1 533 3350 464 364 0 531 442 535 536 83 3 534 .792156862745098 .819607
843137255 .933333333333333 81 1 531 3643 294 364 533 537 527 538 539 81 1 535 33
51 464 367 0 538 533 540 541 83 3 536 .792156862745098 .819607843137255 .9333333
33333333 81 1 538 3646 294 367 535 542 531 543 544 81 1 540 3352 464 371 0 543 5
35 545 546 83 3 541 .792156862745098 .819607843137255 .933333333333333 81 1 543
 3649 294 371 540 547 538 548 549 81 1 545 3353 464 375 0 548 540 550 551 83 3 5
46 .792156862745098 .819607843137255 .933333333333333 81 1 548 3652 294 375 545
 552 543 553 554 81 1 550 3354 464 379 0 553 545 555 556 83 3 551 .7921568627450
98 .819607843137255 .933333333333333 81 1 553 3655 294 379 550 557 548 558 559 8
1 1 555 3355 464 383 0 558 550 560 561 83 3 556 .792156862745098 .81960784313725
5 .933333333333333 81 1 558 3658 294 383 555 562 553 500 563 81 1 560 3356 464 3
87 0 500 555 434 564 83 3 561 .792156862745098 .819607843137255 .933333333333333
 81 1 500 3661 294 387 560 565 558 496 566 81 1 434 3357 464 99 0 430 560 567 56
8 83 3 564 .792156862745098 .819607843137255 .933333333333333 81 1 567 3358 464
 84 0 501 434 569 570 83 3 568 .792156862745098 .819607843137255 .93333333333333
3 81 1 501 3667 294 84 567 571 496 572 573 81 1 569 3359 464 397 0 572 567 574 5
75 83 3 570 .792156862745098 .819607843137255 .933333333333333 81 1 572 3670 294
 397 569 576 501 577 578 81 1 574 3360 464 400 0 577 569 579 580 83 3 575 .79215
6862745098 .819607843137255 .933333333333333 81 1 577 3673 294 400 574 581 572 5
82 583 81 1 579 3361 464 404 0 582 574 584 585 83 3 580 .792156862745098 .819607
843137255 .933333333333333 81 1 582 3676 294 404 579 586 577 587 588 81 1 584 33
62 464 408 0 587 579 589 590 83 3 585 .792156862745098 .819607843137255 .9333333
33333333 81 1 587 3679 294 408 584 591 582 592 593 81 1 589 3363 464 412 0 592 5
84 594 595 83 3 590 .792156862745098 .819607843137255 .933333333333333 81 1 592
 3682 294 412 589 596 587 597 598 81 1 594 3364 464 416 0 597 589 599 600 83 3 5
95 .792156862745098 .819607843137255 .933333333333333 81 1 597 3685 294 416 594
 601 592 428 602 81 1 599 3365 464 92 0 428 594 603 604 83 3 600 .79215686274509
8 .819607843137255 .933333333333333 81 1 428 3688 294 92 599 423 597 430 605 81
 1 603 3366 464 319 0 483 599 606 607 83 3 604 .792156862745098 .819607843137255
 .933333333333333 81 1 483 3614 294 319 603 322 608 479 609 81 1 606 3367 464 31
5 0 608 603 610 611 83 3 607 .792156862745098 .819607843137255 .933333333333333
 81 1 608 3612 294 315 606 318 612 483 613 81 1 610 3368 464 311 0 612 606 614 6
15 83 3 611 .792156862745098 .819607843137255 .933333333333333 81 1 612 3610 294
 311 610 314 616 608 617 81 1 614 3369 464 308 0 616 610 618 619 83 3 615 .79215
6862745098 .819607843137255 .933333333333333 81 1 616 3608 294 308 614 310 303 6
12 620 81 1 618 3370 464 289 0 303 614 0 621 83 3 619 .792156862745098 .81960784
3137255 .933333333333333 81 1 303 3606 294 289 618 307 300 616 622 83 3 621 .792
156862745098 .819607843137255 .933333333333333 81 3 307 3607 422 289 303 0 223 3
10 623 0 0 82 1 622 1876427165 81 3 223 3601 422 212 0 0 220 307 624 0 0 81 3 31
0 3609 422 308 616 0 307 314 625 0 0 82 3 623 83905 3 0 81 3 314 3611 422 311 61
2 0 310 318 626 0 0 82 3 625 83905 1 0 81 3 318 3613 422 315 608 0 314 322 627 0
 0 82 3 626 83905 1 0 81 3 322 3615 422 319 483 0 318 482 628 0 0 82 3 627 83905
 1 0 81 3 482 3617 422 324 479 326 322 326 629 0 0 82 3 628 83905 1 0 81 3 326 3
618 422 324 482 0 482 488 630 0 0 82 3 629 83902 4 0 81 3 488 3620 422 327 484 3
31 326 331 631 0 0 82 3 630 83905 1 0 81 3 331 3621 422 327 488 0 488 493 632 0
 0 82 3 631 83902 2 0 81 3 493 3623 422 332 489 335 331 335 633 0 0 82 3 632 839
05 1 0 81 3 335 3624 422 332 493 0 493 505 634 0 0 82 3 633 83902 4 0 81 3 505 3
626 422 338 494 340 335 340 635 0 0 82 3 634 83905 1 0 81 3 340 3627 422 338 505
 0 505 510 636 0 0 82 3 635 83902 4 0 81 3 510 3629 422 341 506 344 340 344 637
 0 0 82 3 636 83905 1 0 81 3 344 3630 422 341 510 0 510 514 638 0 0 82 3 637 839
02 2 0 81 3 514 3632 422 345 511 348 344 348 639 0 0 82 3 638 83905 1 0 81 3 348
 3633 422 345 514 0 514 521 640 0 0 82 3 639 83902 4 0 81 3 521 3635 422 351 515
 353 348 353 641 0 0 82 3 640 83905 1 0 81 3 353 3636 422 351 521 0 521 526 642
 0 0 82 3 641 83902 4 0 81 3 526 3638 422 354 522 357 353 357 643 0 0 82 3 642 8
3905 1 0 81 3 357 3639 422 354 526 0 526 530 644 0 0 82 3 643 83902 2 0 81 3 530
 3641 422 358 527 361 357 361 645 0 0 82 3 644 83905 1 0 81 3 361 3642 422 358 5
30 0 530 537 646 0 0 82 3 645 83902 4 0 81 3 537 3644 422 364 531 366 361 366 64
7 0 0 82 3 646 83905 1 0 81 3 366 3645 422 364 537 0 537 542 648 0 0 82 3 647 83
902 4 0 81 3 542 3647 422 367 538 370 366 370 649 0 0 82 3 648 83905 1 0 81 3 37
0 3648 422 367 542 0 542 547 650 0 0 82 3 649 83902 2 0 81 3 547 3650 422 371 54
3 374 370 374 651 0 0 82 3 650 83905 1 0 81 3 374 3651 422 371 547 0 547 552 652
 0 0 82 3 651 83902 4 0 81 3 552 3653 422 375 548 378 374 378 653 0 0 82 3 652 8
3905 1 0 81 3 378 3654 422 375 552 0 552 557 654 0 0 82 3 653 83902 4 0 81 3 557
 3656 422 379 553 382 378 382 655 0 0 82 3 654 83905 1 0 81 3 382 3657 422 379 5
57 0 557 562 656 0 0 82 3 655 83902 4 0 81 3 562 3659 422 383 558 386 382 386 65
7 0 0 82 3 656 83905 1 0 81 3 386 3660 422 383 562 0 562 565 658 0 0 82 3 657 83
902 4 0 81 3 565 3662 422 387 500 390 386 390 659 0 0 82 3 658 83905 1 0 81 3 39
0 3663 422 387 565 0 565 499 660 0 0 82 3 659 83902 4 0 81 3 499 3665 422 336 49
6 393 390 393 661 0 0 82 3 660 83905 1 0 81 3 393 3666 422 336 499 0 499 571 662
 0 0 82 3 661 83902 2 0 81 3 571 3668 422 84 501 396 393 396 663 0 0 82 3 662 83
905 1 0 81 3 396 3669 422 84 571 0 571 576 664 0 0 82 3 663 83902 4 0 81 3 576 3
671 422 397 572 399 396 399 665 0 0 82 3 664 83905 1 0 81 3 399 3672 422 397 576
 0 576 581 666 0 0 82 3 665 83902 4 0 81 3 581 3674 422 400 577 403 399 403 667
 0 0 82 3 666 83905 1 0 81 3 403 3675 422 400 581 0 581 586 668 0 0 82 3 667 839
02 4 0 81 3 586 3677 422 404 582 407 403 407 669 0 0 82 3 668 83905 1 0 81 3 407
 3678 422 404 586 0 586 591 670 0 0 82 3 669 83902 4 0 81 3 591 3680 422 408 587
 411 407 411 671 0 0 82 3 670 83905 1 0 81 3 411 3681 422 408 591 0 591 596 672
 0 0 82 3 671 83902 4 0 81 3 596 3683 422 412 592 415 411 415 673 0 0 82 3 672 8
3905 1 0 81 3 415 3684 422 412 596 0 596 601 674 0 0 82 3 673 83902 4 0 81 3 601
 3686 422 416 597 419 415 419 675 0 0 82 3 674 83905 1 0 81 3 419 3687 422 416 6
01 0 601 423 676 0 0 82 3 675 83902 4 0 82 3 676 83905 1 0 81 3 220 3600 422 202
 0 0 217 223 677 0 0 82 3 624 83902 1 0 81 3 217 3599 422 192 0 0 215 220 678 0
 0 82 3 677 83902 1 0 81 3 215 3598 422 89 0 0 208 217 679 0 0 82 3 678 83902 1
 0 81 3 208 3597 422 206 0 0 198 215 680 0 0 82 3 679 83902 1 0 81 3 198 3596 42
2 196 0 0 188 208 681 0 0 82 3 680 83902 1 0 81 3 188 3595 422 186 0 0 152 198 6
82 0 0 82 3 681 83902 1 0 81 3 152 3594 422 122 0 0 149 188 683 0 0 82 3 682 839
02 1 0 81 3 149 3593 422 118 0 0 146 152 684 0 0 82 3 683 83902 2 0 81 3 146 359
2 422 114 0 0 143 149 685 0 0 82 3 684 83902 2 0 81 3 143 3591 422 110 0 0 25 14
6 686 0 0 82 3 685 83902 2 0 81 3 25 3590 422 10 0 0 0 143 687 0 0 82 3 686 8390
2 2 0 82 3 687 83902 1 0 82 1 620 1876558237 82 1 617 1876689309 82 1 613 187682
0381 82 1 609 1876951453 82 1 605 1880228253 82 1 602 1880097181 82 1 598 187996
6109 82 1 593 1879835037 82 1 588 1879703965 82 1 583 1879572893 82 1 578 187944
1821 82 1 573 1879310749 82 1 566 1879048605 82 1 563 1878917533 82 1 559 187878
6461 82 1 554 1878655389 82 1 549 1878524317 82 1 544 1878393245 82 1 539 187826
2173 82 1 532 1878131101 82 1 528 1878000029 82 1 523 1877868957 82 1 516 187773
7885 82 1 512 1877606813 82 1 507 1877475741 82 1 502 1879179677 82 1 495 187734
4669 82 1 490 1877213597 82 1 485 1877082525 79 14 463 SWEntUnchanged15 457 308
 0 688 328 0 17 688 0 457 688 688 0 181 180 0 0 -17 181 0 689 181 181 0 688 180
 0 0 +15 689 316 0 181 324 0 82 1 452 1886847389 15 449 370 0 690 349 0 17 690 0
 449 690 690 0 167 135 0 0 -17 167 0 691 167 167 0 690 135 0 0 +15 691 378 0 167
 351 0 82 1 444 1885995421 15 441 401 0 692 362 0 17 692 0 441 692 692 0 160 130
 0 0 -17 160 0 693 160 160 0 692 130 0 0 +15 693 409 0 160 364 0 82 1 436 188501
2381 15 433 464 0 109 99 694 17 109 0 433 109 109 0 695 107 0 0 +15 694 465 0 11
3 99 696 17 113 0 694 113 113 0 697 111 0 0 +15 696 466 0 117 99 698 17 117 0 69
6 117 117 0 699 115 0 0 +15 698 467 0 121 99 700 17 121 0 698 121 121 0 701 119
 0 0 +15 700 468 0 125 99 702 17 125 0 700 125 125 0 703 123 0 0 +15 702 469 0 1
29 99 704 17 129 0 702 129 129 0 705 127 0 0 +15 704 470 0 134 99 706 17 134 0 7
04 134 134 0 707 132 0 0 +15 706 471 0 139 99 93 17 139 0 706 139 139 0 708 137
 0 0 +17 708 0 709 708 708 0 139 137 0 0 -15 709 332 0 708 332 0 17 707 0 710 70
7 707 0 134 132 0 0 -15 710 363 0 707 345 0 17 705 0 711 705 705 0 129 127 0 0 -
15 711 394 0 705 358 0 17 703 0 712 703 703 0 125 123 0 0 -15 712 425 0 703 371
 0 17 701 0 713 701 701 0 121 119 0 0 -15 713 433 0 701 375 0 17 699 0 384 699 6
99 0 117 115 0 0 -15 384 440 0 699 379 714 15 714 441 0 150 379 0 17 150 0 714 1
50 150 0 715 118 0 0 +17 715 0 320 715 715 0 150 118 0 0 -15 320 538 0 715 315 0
 17 697 0 716 697 697 0 113 111 0 0 -15 716 449 0 697 383 0 17 695 0 391 695 695
 0 109 107 0 0 -15 391 456 0 695 387 717 15 717 457 0 144 387 0 17 144 0 717 144
 144 0 718 110 0 0 +17 718 0 312 718 718 0 144 110 0 0 -15 312 548 0 718 308 0 8
2 3 429 83902 4 0 79 9 427 MOLD_PERM15 420 521 0 76 416 0 17 76 0 420 95 36 75 7
19 210 0 94 +17 95 0 420 35 76 77 94 96 0 0 +17 36 0 420 76 35 30 224 212 0 719
 -17 719 0 417 44 720 30 76 210 0 209 -17 94 0 93 721 79 75 95 96 0 720 -17 721
 0 93 722 94 72 720 723 0 724 -16 96 204 0 ?95 91 723 725 0 0 1 17 720 0 417 719
 74 75 721 723 0 0 +15 417 514 0 74 412 0 17 74 0 417 720 44 72 205 203 0 721 -1
6 723 203 0 ?720 96 726 727 0 0 1 16 726 202 0 ?724 723 728 729 0 0 1 30 727 650
 0 723 725 729 0 +.06676 .1109123934765204 0 0 0 -1 31 725 651 0 96 97 727 0 -.0
6476 .1109123934765204 -.05976 0 -1 0 0 0 -1 .002 31 729 649 0 726 727 730 0 -.0
6476 .1109123934765204 -.002 0 -1 0 0 0 -1 .002 30 730 648 0 728 729 106 0 +0 .1
109123934765204 0 1 0 0 16 728 201 0 ?731 726 732 730 0 0 1 31 106 647 0 732 730
 104 0 -.002 .1109123934765204 -.002 0 -1 0 0 0 -1 .002 16 732 200 0 ?733 728 10
2 106 0 0 1 17 733 0 405 195 65 66 100 732 0 0 +16 102 199 0 ?101 732 110 104 0
 0 1 17 101 0 401 734 62 63 98 102 0 0 +15 401 486 0 62 397 0 17 734 0 401 56 10
1 51 65 190 0 189 -17 62 0 401 101 56 60 85 184 0 98 -17 56 0 401 62 734 54 189
 186 0 85 -17 85 0 81 59 82 54 62 184 0 88 +17 88 0 290 189 26 54 59 89 0 0 +15
 290 561 0 209 289 0 17 189 0 290 218 88 51 56 186 0 0 +17 26 0 290 88 224 57 29
 10 0 34 +17 224 0 290 26 209 11 36 212 0 0 +17 209 0 290 224 221 30 44 206 0 0
 +17 221 0 290 209 199 37 47 202 0 0 +17 44 0 417 74 719 37 209 206 0 205 -17 20
5 0 413 47 724 37 74 203 0 221 +15 413 507 0 71 408 0 17 47 0 413 71 205 45 221
 202 0 735 -17 724 0 413 205 71 72 722 726 0 0 +17 71 0 413 724 47 69 735 200 0
 722 +17 722 0 93 736 721 69 724 726 0 731 -17 736 0 93 100 722 66 731 728 0 733
 -17 731 0 409 735 68 69 736 728 0 0 +15 409 500 0 68 404 0 17 735 0 409 50 731
 45 71 200 0 199 -17 68 0 409 731 50 66 195 193 0 736 -17 50 0 409 68 735 48 199
 196 0 195 -17 195 0 405 53 733 48 68 193 0 218 +15 405 493 0 65 400 0 17 53 0 4
05 65 195 51 218 192 0 734 -17 218 0 290 199 189 48 53 192 0 0 +17 199 0 290 221
 218 45 50 196 0 0 +17 65 0 405 733 53 63 734 190 0 100 +17 100 0 93 98 736 63 7
33 732 0 101 -30 97 652 0 91 0 725 0 +0 .1109123934765204 -.06176 -1 0 0 17 35 0
 420 36 95 11 33 27 0 224 +15 394 339 0 737 336 0 17 737 0 394 737 737 0 174 140
 0 0 -17 174 0 738 174 174 0 737 140 0 0 +15 738 347 0 174 338 0 15 388 448 0 73
9 383 716 17 739 0 388 739 739 0 147 114 0 0 -17 147 0 316 147 147 0 739 114 0 0
 +15 316 543 0 147 311 0 15 380 432 0 740 375 713 17 740 0 380 740 740 0 153 122
 0 0 -17 153 0 323 153 153 0 740 122 0 0 +15 323 533 0 153 319 0 15 376 424 0 15
5 371 712 17 155 0 376 155 155 0 741 126 0 0 +17 741 0 372 741 741 0 155 126 0 0
 -15 372 416 0 741 367 742 15 742 417 0 158 367 0 17 158 0 742 158 158 0 743 156
 0 0 +17 743 0 368 743 743 0 158 156 0 0 -15 368 408 0 743 364 693 15 363 393 0
 162 358 711 17 162 0 363 162 162 0 744 131 0 0 +17 744 0 359 744 744 0 162 131
 0 0 -15 359 385 0 744 354 745 15 745 386 0 165 354 0 17 165 0 745 165 165 0 746
 163 0 0 +17 746 0 355 746 746 0 165 163 0 0 -15 355 377 0 746 351 691 15 350 36
2 0 169 345 710 17 169 0 350 169 169 0 747 136 0 0 +17 747 0 346 747 747 0 169 1
36 0 0 -15 346 354 0 747 341 748 15 748 355 0 172 341 0 17 172 0 748 172 172 0 7
49 170 0 0 +17 749 0 342 749 749 0 172 170 0 0 -15 342 346 0 749 338 738 15 337
 331 0 176 332 709 17 176 0 337 176 176 0 750 141 0 0 +17 750 0 333 750 750 0 17
6 141 0 0 -15 333 323 0 750 327 751 15 751 324 0 179 327 0 17 179 0 751 179 179
 0 752 177 0 0 +17 752 0 329 752 752 0 179 177 0 0 -15 329 315 0 752 324 689 82
 1 304 1876099485 50 19 93 0 268 293 6 0 +-.00810824398184812 .0909123934765205
 .00885247190111161 0 0 1 1 0 0 82 1 297 1875706269 17 260 0 255 232 256 286 248
 246 0 230 -29 265 78 0 257 0 281 -.00810824398184812 .1409123934765204 .0088524
7190111161 19 17 100 0 1 0 9 5 S0 74 4 CI16 index_map_offset0 0 1 dCCZ20 15 10 0
 0 753 455 754 459 755 756 757 13 618 2 0 0 0 0 0 0 0 0 0 0 81 2 753 115 758 1 0
 754 0 0 0 759 81 2 754 1126 760 1 753 755 0 0 0 761 81 2 755 1466 762 1 754 756
 0 0 763 0 81 1 756 3273 764 1 755 757 0 0 765 81 2 757 3326 766 1 756 13 0 0 0
 767 81 2 13 3329 768 1 757 2 0 0 0 0 80 2 768 769 770 9000 0 0 0 0 3 5 0 0 0 FF
TFFFFFFFFFFF9 1 79 16 770 BODY_RECIPE_200180 2 766 771 772 9000 0 0 0 0 3 5 0 0
 0 FFTFFFFFFFFFFF9 1 82 1 767 1 79 24 772 BODY_IN_LIGHTWEIGHT_PERM80 1 764 773 7
74 9000 1 1 1 1 1 1 1 1 0 FFTFFFFFFFFFFF1 82 1 765 16934871 79 10 774 BODY_MATCH
80 2 762 775 776 8004 0 0 0 0 3 5 0 0 0 FFTFFFFFFFFFFF2 3 83 1 763 1 79 16 776 S
DL/TYSA_DENSITY80 2 760 777 778 9000 0 0 0 0 3 5 0 0 0 FFTFFFFFFFFFFF9 1 82 1 76
1 26 79 30 778 LAST_BODY_MODIFYING_FEATURE_ID80 2 758 779 780 9000 0 0 0 0 3 5 0
 0 0 FFTFFFFFFFFFFF9 1 82 1 759 107 79 19 780 ENT_TIME_STAMP_200180 2 12 781 782
 9000 0 0 0 0 3 5 0 0 0 FFTFFFFFFFFFFF9 1 82 1 14 101 79 12 782 ATOM_ID_20011 0
 
