**ABCDEFGHIJKLMNOPQRSTUVWXYZabcdefghijklmnopqrstuvwxyz**************************
**PARASOLID !"#$%&'()*+,-./:;<=>?@[\]^_`{|}~0123456789**************************
**PART1;
MC=AMD64;
MC_MODEL=AMD64 Family 23 Model 96 Stepping 1, AuthenticAMD;
MC_ID=unknown;
OS=Windows_NT;
OS_RELEASE=unknown;
FRU=Parasolid Version 33.1, build 247,  8- 6-2021;
APPL=SOLIDWORKS 2022-2022009;
SITE=;
USER=unknown;
FORMAT=text;
GUISE=transmit;
KEY=FILEbottom_cavity.x_t;
DATE=Wed May 31 17:12:07 2023;
**PART2;
SCH=SCH_3301247_33103;
USFLD_SIZE=0;
**PART3;
**END_OF_HEADER*****************************************************************
T51 : TRANSMIT FILE created by modeller version 330124723 SCH_3301247_33103_1300
6230 0 12 35 CCCI7 lattice222 0 CCCI4 mesh1006 0 I8 polyline1008 0 CCCCCCCDI5 ow
ner1040 0 CCCCCCI13 boundary_mesh1006 0 I17 boundary_polyline1008 0 CCCA16 index
_map_offset0 0 1 dA9 index_map82 0 A17 node_id_index_map82 0 A20 schema_embeddin
g_map82 0 A5 child12 0 A14 lowest_node_id0 0 1 dA16 mesh_offset_data206 0 Z1 303
7 2 3 0 0 0 0 0 0 0 1e3 1e-8 0 4 0 1 0 1 1 5 6 7 8 0 0 9 10 11 0 0 0 0 0 0 0 81
 255 2 2 2959 12 1 13 0 0 0 0 14 70 11 CI9 list_type0 0 1 uI10 notransmit0 0 1 l
CCCDCCDI12 finger_index0 0 1 dI12 finger_block1012 0 CZ3 0 4 T1 0 0 11 20 1 15 1
5 13 255 5 99 0 1 0 16 0 0 17 0 50 255 6 94 0 16 18 0 0 +-.00810824398184812 -.1
125361644196 .00885247190111161 -1 0 0 0 0 1 30 255 7 130 0 19 20 0 0 +-.0081082
4398184812 -.0945187113486034 .00885247190111161 1 0 0 29 255 8 1040 0 21 22 0 .
002 -.0965361644196001 -.05977737757881 19 8 CCCCCCCA5 owner12 0 Z9 33 0 1 17 0
 23 V0 16 255 10 249 24 ?25 0 26 27 0 0 1 18 255 11 294 0 28 0 29 30 ?1 17 255 2
8 0 31 32 33 11 34 35 0 36 -18 29 300 0 37 11 38 39 ?1 29 30 972 0 11 40 41 .001
982622421189955 -.0965361644196001 -.0555511634077333 29 40 971 0 42 39 30 .0019
82622421189955 -.0965361644196001 -.0589488365922668 29 41 973 0 43 30 44 .00198
2622421189955 -.0965361644196001 -.00620883659226675 18 43 295 0 45 46 47 41 ?1
 29 44 974 0 48 41 22 .001982622421189955 -.0965361644196001 -.00281116340773325
 18 48 296 0 49 50 51 44 ?1 29 22 975 0 52 44 8 .001982622421189955 -.0965361644
196001 -.002 18 52 297 0 53 54 50 22 ?1 17 53 0 55 56 57 52 58 59 0 60 -18 54 31
4 0 61 62 52 63 ?1 18 50 283 0 64 52 48 65 ?1 17 64 0 66 67 61 50 68 69 0 70 +29
 65 956 0 50 71 72 .002 -.0965361644196001 -.001982622421189955 29 71 955 0 73 7
4 65 .0639488365922667 -.0965361644196001 -.001982622421189955 29 72 957 0 51 65
 75 .00281116340773325 -.0965361644196001 -.001982622421189955 18 51 284 0 76 48
 46 72 ?1 29 75 958 0 47 72 77 .002 -.0945187113486034 -.0617773014249384 18 47
 311 0 25 43 78 75 ?1 29 77 959 0 78 75 79 -173014249383861e-19 -.09451871134860
34 -.05976 18 78 312 0 80 47 81 77 ?1 29 79 960 0 62 77 63 -173014249383861e-19
 -.0945187113486034 -.002 18 62 313 0 82 83 54 79 ?1 29 63 961 0 54 79 84 .002 -
.0945187113486034 173014249383861e-19 29 84 962 0 85 63 86 .06476 -.094518711348
6034 173014249383861e-19 18 85 315 0 87 88 89 84 ?1 29 86 963 0 88 84 90 .066777
3014249384 -.0945187113486034 -.002 18 88 316 0 91 92 85 86 ?1 29 90 964 0 93 86
 94 .06476 -.0945187113486034 -.0617773014249384 18 93 310 0 95 96 97 90 ?1 29 9
4 965 0 98 90 99 .0777295021874928 -.0945187113486034 .00885247190111161 18 98 3
08 0 100 42 101 94 ?1 29 99 966 0 101 94 102 -.00810824398184812 -.0945187113486
034 -.0700922431364489 18 101 306 0 103 98 104 99 ?1 29 102 967 0 96 99 105 .064
76 -.0965361644196001 -.05977737757881 18 96 303 0 106 107 93 102 ?1 29 105 968
 0 107 102 108 .0639488365922668 -.0965361644196001 -.05977737757881 18 107 304
 0 109 38 96 105 ?1 29 108 969 0 38 105 39 .0605511634077333 -.0965361644196001
 -.05977737757881 18 38 305 0 110 29 107 108 ?1 29 39 970 0 29 108 40 .006208836
59226676 -.0965361644196001 -.05977737757881 17 110 0 111 112 113 38 114 115 0 1
16 -15 255 111 460 0 110 117 118 17 112 0 111 119 110 97 120 121 0 122 -17 113 0
 111 110 119 107 123 124 0 0 -17 114 0 125 126 116 107 110 115 0 113 +16 115 219
 0 ?114 121 127 128 0 0 1 17 116 0 125 114 37 38 129 130 0 120 +15 125 490 0 37
 131 0 17 37 0 125 116 132 29 133 26 0 129 +17 129 0 134 36 120 29 116 130 0 32
 -16 130 223 0 ?116 135 136 137 138 127 1 17 120 0 134 129 122 38 112 121 0 0 +1
5 134 468 0 36 139 0 17 122 0 134 120 140 97 141 142 0 143 -16 121 222 0 ?120 13
6 115 144 0 0 1 16 136 231 0 ?36 130 121 145 0 0 1 31 255 144 597 0 121 146 147
 0 +.06225 -.0965361644196001 -.05725 0 -1 0 0 0 -1 .003045272269124095 38 12 CC
CCCCCCCCCA17 intersection_data204 0 Z146 598 0 148 149 144 0 -150 151 152 153 15
4 155 30 147 596 0 156 144 157 0 -.06477737757881 -.0965361644196001 0 0 0 -1 16
 156 218 0 ?158 159 160 147 161 142 1 31 157 595 0 162 147 163 0 +.06225 -.09653
61644196001 -.00451 0 -1 0 0 0 -1 .003045272269124095 16 162 208 0 ?140 164 165
 157 0 0 1 30 163 594 0 166 157 167 0 -0 -.0965361644196001 -.001982622421189955
 1 0 0 16 166 225 0 ?168 169 170 163 171 172 1 31 167 593 0 173 163 174 0 +.0045
1 -.0965361644196001 -.00451 0 -1 0 0 0 -1 .003045272269124095 16 173 197 0 ?175
 176 148 167 0 0 1 31 174 592 0 124 167 177 0 +.06225 -.0965361644196001 -.05725
 0 -1 0 0 0 -1 .003045272269124095 16 124 220 0 ?123 127 178 174 0 0 1 38 177 59
1 0 160 174 179 0 -180 181 182 183 184 185 16 160 221 0 ?143 156 186 177 0 0 1 3
1 179 590 0 187 177 188 0 +.06225 -.0940361644196001 -.05725 0 -1 0 0 0 -1 .0030
6708943860099 52 255 180 543 0 117 189 190 191 +.06225 -.0925361644196001 -.0572
5 0 1 0 .00308017974028713 .00872653549837395 .999961923064171 0 0 1 51 255 181
 541 0 192 190 193 194 +.06477737757881 -.0945361644196001 0 0 0 -1 .002 -1 0 0
 40 255 5 182 .00269820429711185 1.003312592777682 5 .0001932017190825875 .38244
90911609595 ??.06477737757881 -.0965361644196001 -.0555511634077333 .06519542458
45585 -.0964919856540141 -.0564750770872914 .0652872784206055 -.0964700726727332
 -.0574783335035434 .0650510229422305 -.0965173555297857 -.0584453883952633 .064
5009934338638 -.0965169753152745 -.0593012756297384 41 3 CI8 term_use0 0 1 cCZ1
 183 L?.06477737757881 -.0965361644196001 -.0555511634077333 41 1 184 L?.0645009
934338638 -.0965169753152745 -.0593012756297384 204 2 17 INTERSECTION_DATA17 Int
ersection data7 uv_type0 0 1 u6 values0 1 1 fT20 185 4 .978990885728946 -.004 4.
71238898038469 .0555511634077333 1.313532567043062 -.003955821234414015 4.501812
68195928 .0564750770872914 1.64583218988941 -.003933908253133105 4.4545925510034
15 .0574783335035434 1.97416396631427 -.003981191110185605 4.57513576487489 .058
4453883952633 2.30980628774681 -.003980810895674385 4.85102471972232 .0593012756
297384 14 255 192 432 195 ?196 197 198 5 181 -0 0 196 197 23 54 255 190 542 0 19
6 180 181 0 +.06476 -.0945361644196001 -.05976 0 -1 0 1737757881004375e-20 .002
 0 0 -1 54 193 540 0 197 181 199 0 +.06476 -.0945361644196001 -.002 0 -1 0 17377
57881004375e-20 .002 0 0 -1 141 255 194 177 200 200 181 141 200 201 194 194 181
 38 201 588 0 164 188 202 0 -203 181 204 205 206 207 16 164 209 0 ?208 209 162 2
01 0 0 1 31 188 589 0 178 179 201 0 +.06476 -.0965361644196001 -.05976 0 -1 0 0
 0 -1 1737757881004375e-20 31 202 587 0 210 201 211 0 +.06476 -.0965361644196001
 -.002 0 -1 0 0 0 -1 1737757881004375e-20 52 203 538 0 212 199 213 214 +.06225 -
.0925361644196001 -.00451 0 1 0 .00308017974028713 .00872653549837395 .999961923
064171 0 0 1 40 5 204 .00269820429711186 1.003312592777682 5 .000193201719082587
 .3824490911609595 ??.06477737757881 -.0965361644196001 -.002811163407733255 .06
51954245845585 -.0964919856540141 -.003735077087291375 .0652872784206055 -.09647
00726727332 -.00473833350354341 .0650510229422305 -.0965173555297857 -.005705388
39526326 .0645009934338638 -.0965169753152745 -.00656127562973843 41 1 205 L?.06
477737757881 -.0965361644196001 -.002811163407733255 41 1 206 L?.064500993433863
8 -.0965169753152745 -.00656127562973843 204 20 207 4 .978990885728946 -.004 4.7
1238898038469 .002811163407733255 1.313532567043062 -.003955821234414015 4.50181
268195928 .003735077087291375 1.64583218988941 -.003933908253133105 4.4545925510
03415 .00473833350354341 1.97416396631427 -.003981191110185605 4.57513576487489
 .00570538839526326 2.30980628774681 -.003980810895674385 4.85102471972232 .0065
6127562973843 14 212 409 215 ?216 217 218 5 203 +0 0 216 217 23 51 199 539 0 216
 193 203 219 +0 -.0945361644196001 -.001982622421189955 1 0 0 .002 0 0 -1 50 213
 537 0 220 203 221 0 +.06225 -.0940361644196001 -.00451 0 1 0 0 0 1 141 214 201
 222 222 203 141 222 211 214 214 203 38 211 586 0 165 202 223 0 -203 199 224 225
 226 227 16 165 207 0 ?228 162 171 211 0 0 1 38 223 585 0 176 211 229 0 -150 199
 230 231 232 233 40 6 224 .000799437767954954 .995971316317832 6 .00017693894740
0173 .350886214078784 ??.0603967222336573 -.0965330855625588 -.00209355460229510
5 .0610841145702316 -.0965155996772625 -.00169655239353387 .0620232133711759 -.0
96470042041504 -.001472605418042786 .0622206350615912 -.0964678253044235 -.00146
4272900071802 .0632223201147385 -.0965037174659456 -.001623825807748985 .0641080
329493533 -.0965328793306472 -.00209720673077099 41 1 225 L?.0603967222336573 -.
0965330855625588 -.002093554602295105 41 1 226 L?.0641080329493533 -.09653287933
06472 -.00209720673077099 204 24 227 4 5.62892807737173 -.003996921142958645 4.7
6788355050218 .0603967222336573 5.89032930327756 -.00397943525766236 4.568861694
90482 .0610841145702316 6.20865873722948 -.003933877621903925 4.45453248493178 .
0620232133711759 6.27354425017867 -.003931660884823365 4.450221310666855 .062220
6350615912 .3249471642977265 -.00396755304634546 4.53201417910205 .0632223201147
385 .656226105283972 -.0039967149110471 4.76971252410339 .0641080329493533 16 17
6 198 0 ?234 235 173 223 0 0 1 31 229 584 0 236 223 237 0 +.06225 -.096536164419
6001 -.00451 0 -1 0 0 0 -1 .003045272269124095 52 150 535 0 238 221 239 240 +.00
451 -.0925361644196001 -.00451 0 1 0 .00308017974028713 .00872653549837395 .9999
61923064171 0 0 1 40 5 230 .00269820429711185 1.003312592777682 5 .0001932017190
82589 .38244909116096 ??.00281116340773325 -.0965361644196001 -.0019826224211899
55 .003735077087291385 -.0964919856540141 -.001564575415441525 .0047383335035434
1 -.0964700726727332 -.001472721579394542 .00570538839526326 -.0965173555297857
 -.00170897705776949 .00656127562973843 -.0965169753152745 -.00225900656613618 4
1 1 231 L?.00281116340773325 -.0965361644196001 -.001982622421189955 41 1 232 L?
.00656127562973843 -.0965169753152745 -.00225900656613618 204 20 233 4 5.6913798
6611364 -.004 4.71238898038469 .00281116340773325 6.02592154742776 -.00395582123
4414015 4.50181268195929 .003735077087291385 .0750358630945157 -.003933908253133
105 4.454592551003415 .00473833350354341 .403367639519378 -.00398119111018561 4.
57513576487489 .00570538839526326 .739009960951916 -.003980810895674385 4.851024
71972232 .00656127562973843 14 238 371 241 ?242 243 244 5 150 +0 0 242 243 23 54
 221 536 0 245 213 150 0 +.002 -.0945361644196001 -.002 0 -1 0 1737757881004375e
-20 .002 0 0 -1 50 239 534 0 243 150 246 0 +.00451 -.0940361644196001 -.00451 0
 -1 0 0 0 -1 141 240 146 247 247 150 141 247 223 240 240 150 14 243 363 248 ?238
 249 250 5 239 -0 0 238 249 23 50 246 533 0 249 239 251 0 +.06225 -.094036164419
6001 -.05725 0 -1 0 0 0 -1 14 249 355 252 ?243 253 254 5 246 -0 0 243 253 23 54
 251 532 0 253 246 255 0 +.002 -.0945361644196001 -.05976 0 -1 0 173775788100437
5e-20 .002 0 0 -1 14 253 347 256 ?249 257 258 5 251 -0 0 249 257 23 50 255 531 0
 259 251 260 0 +.00451 -.0940361644196001 -.05725 0 1 0 0 0 1 14 259 332 261 ?25
7 262 263 5 255 +0 0 257 262 23 50 260 526 0 264 255 265 0 +-1730142493838625e-2
0 -.0945187113486034 -.05976 0 -1 0 0 0 1 14 264 511 266 ?0 131 267 5 260 -0 0 0
 131 23 50 265 3 0 262 260 268 0 +0 -.1125361644196 0 0 -1 0 0 0 -1 14 262 1 269
 ?259 270 271 5 265 +0 0 259 270 23 50 268 91 0 272 265 273 0 +-.008108243981848
12 -.1125361644196 -.0700922431364489 0 0 -1 -1 0 0 14 272 84 274 ?275 16 276 5
 268 +0 0 275 16 23 50 273 92 0 275 268 18 0 +.0777295021874928 -.1125361644196
 .00885247190111161 1 0 0 0 0 -1 14 275 86 277 ?270 272 278 5 273 +0 0 270 272 2
3 50 18 93 0 270 273 6 0 +-.00810824398184812 -.1125361644196 .00885247190111161
 0 0 1 1 0 0 14 270 88 279 ?262 275 280 5 18 +0 0 262 275 23 81 1 279 2987 281 2
70 282 0 277 283 284 15 280 129 0 285 270 0 13 23 34 0 0 0 0 0 0 9 16 14 16 90 2
83 ?272 0 286 5 6 +0 0 272 0 23 81 1 283 2988 281 16 287 0 279 288 289 15 286 15
4 0 290 16 0 17 290 0 286 291 292 101 293 294 0 295 -17 291 0 286 296 290 297 29
5 298 0 299 -17 292 0 286 290 296 300 301 302 0 285 +17 293 0 267 100 103 300 29
0 294 0 292 +16 294 153 0 ?293 19 303 304 0 0 1 17 295 0 276 305 306 101 291 298
 0 0 +15 276 148 0 305 272 0 17 305 0 276 307 295 104 103 303 0 308 -17 306 0 27
6 295 307 297 309 310 0 0 +16 298 79 0 ?295 311 312 313 0 0 1 16 311 138 0 ?314
 303 298 315 0 0 1 16 312 80 0 ?308 298 316 317 0 0 1 30 313 95 0 298 318 317 0
 +-.00810824398184812 -.1125361644196 -.0700922431364489 0 1 0 30 318 19 0 310 3
19 313 0 +-.00810824398184812 -.1125361644196 -.0700922431364489 -1 0 0 30 317 9
6 0 312 313 320 0 +.0777295021874928 -.1125361644196 -.0700922431364489 0 1 0 30
 320 97 0 316 317 20 0 +.0777295021874928 -.1125361644196 .00885247190111161 0 1
 0 16 316 81 0 ?321 312 302 320 0 0 1 30 20 98 0 302 320 7 0 +-.0081082439818481
2 -.1125361644196 .00885247190111161 0 1 0 16 302 82 0 ?292 316 310 20 0 0 1 16
 310 17 0 ?306 302 322 318 0 0 1 16 322 13 0 ?323 310 324 319 0 0 1 17 323 0 278
 308 325 326 327 322 0 309 +16 324 9 0 ?328 322 329 330 0 0 1 30 319 15 0 322 33
0 318 0 +.0777295021874928 -.1125361644196 .00885247190111161 0 0 -1 30 330 11 0
 324 331 319 0 +-.00810824398184812 -.1125361644196 .00885247190111161 1 0 0 30
 331 7 0 329 304 330 0 +-.00810824398184812 -.1125361644196 .00885247190111161 0
 0 1 16 329 5 0 ?296 324 0 331 0 0 1 30 304 548 0 294 332 331 0 +-.0081082439818
4812 -.0945187113486034 .00885247190111161 0 0 1 30 332 549 0 303 315 304 0 +-.0
0810824398184812 -.0945187113486034 -.0700922431364489 -1 0 0 16 303 147 0 ?103
 294 311 332 0 0 1 30 315 550 0 311 333 332 0 +.0777295021874928 -.0945187113486
034 .00885247190111161 0 0 -1 31 333 551 0 334 335 315 0 -.06476 -.0945187113486
034 -.05976 0 -1 0 0 0 -1 .002017301424938385 16 334 245 336 ?95 178 337 333 0 0
 1 31 335 552 0 186 338 333 0 -.06476 -.0945187113486034 -.002 0 -1 0 0 0 -1 .00
2017301424938385 16 186 269 339 ?91 160 169 335 0 0 1 31 338 553 0 340 341 335 0
 -.002 -.0945187113486034 -.002 0 -1 0 0 0 -1 .002017301424938385 16 340 261 342
 ?61 343 69 338 0 0 1 31 341 554 0 344 345 338 0 -.002 -.0945187113486034 -.0597
6 0 -1 0 0 0 -1 .002017301424938385 16 344 253 346 ?80 347 348 341 0 0 1 31 345
 555 0 337 349 341 0 +.06476 -.0945361644196001 -.05977737757881 1 0 0 0 0 -1 .0
02 16 337 214 0 ?350 334 142 345 0 0 1 31 349 556 0 159 351 345 0 +.064777377578
81 -.0945361644196001 -.05976 0 0 -1 -1 0 0 .002 16 159 215 0 ?352 353 156 349 0
 0 1 31 351 557 0 169 354 349 0 +.06477737757881 -.0945361644196001 -.002 0 0 -1
 -1 0 0 .002 16 169 213 0 ?355 186 166 351 0 0 1 30 354 558 0 353 356 351 0 +.06
67773014249384 -.0945187113486034 0 0 0 -1 16 353 241 357 ?358 142 159 354 0 0 1
 31 356 559 0 209 359 354 0 +.06476 -.0945361644196001 -.001982622421189955 1 0
 0 0 0 -1 .002 16 209 212 0 ?360 170 164 356 0 0 1 31 359 560 0 69 361 356 0 +.0
02 -.0945361644196001 -.001982622421189955 1 0 0 0 0 -1 .002 16 69 211 0 ?64 340
 59 359 0 0 1 30 361 561 0 170 362 359 0 +0 -.0945187113486034 1730142493838625e
-20 1 0 0 16 170 265 363 ?87 166 209 361 0 0 1 31 362 562 0 343 364 361 0 +.0019
82622421189955 -.0945361644196001 -.002 0 0 -1 -1 0 0 .002 16 343 227 0 ?365 366
 340 362 0 0 1 31 364 563 0 348 367 362 0 +.001982622421189955 -.094536164419600
1 -.05976 0 0 -1 -1 0 0 .002 16 348 185 0 ?368 344 138 364 0 0 1 30 367 564 0 36
9 27 364 0 +-1730142493838625e-20 -.0945187113486034 0 0 0 1 16 369 257 370 ?82
 26 35 367 0 0 1 30 27 565 0 10 371 367 0 +0 -.0945187113486034 -.06177730142493
84 -1 0 0 31 371 566 0 347 372 27 0 +.002 -.0945361644196001 -.05977737757881 1
 0 0 0 0 -1 .002 16 347 232 0 ?373 187 344 371 0 0 1 31 372 576 0 374 375 371 0
 +.002 -.0965361644196001 -.05976 0 -1 0 0 0 -1 1737757881004375e-20 16 374 183
 0 ?376 138 377 372 0 0 1 31 375 579 0 378 379 372 0 +.00451 -.0940361644196001
 -.00451 0 -1 0 0 0 -1 .00306708943860099 16 378 191 0 ?380 148 187 375 0 0 1 31
 379 580 0 235 381 375 0 +.00451 -.0965361644196001 -.00451 0 -1 0 0 0 -1 .00304
5272269124095 16 235 199 0 ?57 172 176 379 0 0 1 31 381 581 0 382 237 379 0 +.00
2 -.0965361644196001 -.002 0 -1 0 0 0 -1 1737757881004375e-20 16 382 201 0 ?67 5
9 172 381 0 0 1 31 237 583 0 366 229 381 0 -.06225 -.0940361644196001 -.00451 0
 1 0 0 0 1 .00306708943860099 16 366 203 0 ?383 236 343 237 0 0 1 17 383 0 384 3
83 383 0 385 366 0 0 +16 236 210 0 ?386 161 366 229 0 0 1 17 386 0 387 388 389 7
3 390 236 0 0 +16 161 204 0 ?391 210 236 147 142 156 1 17 391 0 198 392 208 393
 389 161 0 394 +16 210 205 0 ?395 171 161 202 0 0 1 16 142 224 0 ?141 337 353 14
7 156 161 1 17 141 0 198 208 143 89 122 142 0 140 +15 198 438 0 143 192 0 17 208
 0 198 391 141 83 396 164 0 390 +17 143 0 198 141 158 97 119 160 0 0 +18 89 291
 0 141 85 397 398 ?1 17 140 0 134 122 399 89 400 162 0 396 +17 399 0 134 140 175
 397 168 166 0 228 -17 400 0 218 401 396 397 140 162 0 399 -17 396 0 218 400 390
 89 208 164 0 0 -15 218 415 0 401 212 384 17 390 0 218 396 401 83 386 236 0 0 -1
7 401 0 218 390 400 73 228 165 0 402 -18 83 287 0 389 393 62 403 ?1 17 389 0 387
 386 394 83 391 161 0 208 -18 393 286 0 355 404 83 405 ?1 29 403 953 0 83 405 74
 .06477737757881 -.0965361644196001 -.002811163407733245 29 405 952 0 393 406 40
3 .06477737757881 -.0965361644196001 -.002 29 74 954 0 404 403 71 .06476 -.09653
61644196001 -.001982622421189955 18 404 285 0 360 73 393 74 ?1 17 360 0 407 402
 87 404 408 209 0 395 +18 73 282 0 401 397 404 71 ?1 18 397 292 0 400 89 73 409
 ?1 29 409 949 0 397 410 411 .0605511634077333 -.0965361644196001 -.001982622421
189955 29 410 948 0 412 398 409 .001982622421189955 -.0965361644196001 -.05976 2
9 411 950 0 46 409 406 .00620883659226675 -.0965361644196001 -.00198262242118995
5 18 46 293 0 168 51 43 411 ?1 29 406 951 0 413 411 405 .06477737757881 -.096536
1644196001 -.05976 18 413 288 0 414 415 92 406 ?1 17 414 0 416 417 106 413 418 1
78 0 419 +18 415 309 0 358 97 413 420 ?1 18 92 289 0 123 413 88 421 ?1 17 123 0
 422 419 109 92 113 124 0 119 +29 421 945 0 92 423 424 .06477737757881 -.0965361
644196001 -.0589488365922668 29 423 847 0 81 420 421 .002811163407733245 -.09653
61644196001 -.05977737757881 29 424 946 0 97 421 398 .06477737757881 -.096536164
4196001 -.0555511634077333 18 97 290 0 112 93 415 424 ?1 29 398 947 0 89 424 410
 .06477737757881 -.0965361644196001 -.00620883659226675 18 81 301 0 133 78 21 42
3 ?1 29 420 727 0 415 425 423 .0667773014249384 -.0945187113486034 -.05976 29 42
5 706 0 104 426 420 .0777295021874928 -.0945187113486034 -.0700922431364489 18 1
04 307 0 314 101 300 425 ?1 29 426 691 0 300 427 425 -.00810824398184812 -.09451
87113486034 .00885247190111161 18 300 688 0 293 104 297 426 ?1 29 427 32 0 297 4
28 426 -.00810824398184812 -.1125361644196 -.0700922431364489 18 297 30 0 291 30
0 326 427 ?1 29 428 29 0 326 429 427 .0777295021874928 -.1125361644196 -.0700922
431364489 18 326 27 0 307 297 430 428 ?1 29 429 26 0 430 431 428 .07772950218749
28 -.1125361644196 .00885247190111161 18 430 24 0 325 326 432 429 ?1 29 431 23 0
 432 0 429 -.00810824398184812 -.1125361644196 .00885247190111161 18 432 21 0 30
1 430 0 431 ?1 17 301 0 280 328 285 432 292 302 0 433 -17 328 0 280 321 301 430
 433 324 0 0 +17 285 0 280 301 321 300 100 19 0 0 -17 433 0 271 299 327 432 328
 324 0 296 -15 271 4 0 299 262 0 17 299 0 271 309 433 297 296 329 0 306 -17 327
 0 271 433 309 430 323 322 0 328 -17 296 0 286 292 291 432 299 329 0 0 +17 309 0
 271 327 299 326 306 310 0 0 -17 321 0 280 285 328 98 325 316 0 0 +17 100 0 267
 314 293 98 285 19 0 434 +16 19 678 0 ?100 435 294 7 0 0 1 16 435 181 0 ?436 437
 19 438 0 0 1 17 436 0 439 436 436 0 440 435 0 0 +16 437 229 0 ?441 377 435 442
 0 0 1 31 438 600 0 435 145 149 0 -.00451 -.0940361644196001 -.05725 0 1 0 0 0 1
 .00306708943860099 31 145 601 0 136 442 438 0 +.00451 -.0965361644196001 -.0572
5 0 -1 0 0 0 -1 .003045272269124095 30 149 599 0 377 438 146 0 -.001982622421189
955 -.0965361644196001 0 0 0 1 16 377 182 0 ?443 374 437 149 59 135 1 17 443 0 4
44 368 34 412 445 377 0 446 +16 59 202 0 ?58 69 382 149 135 377 1 16 135 226 0 ?
447 35 130 149 377 59 1 17 447 0 444 34 448 11 45 135 0 0 +16 35 228 0 ?34 369 1
35 449 0 0 1 17 34 0 444 443 447 42 28 35 0 33 +38 449 603 0 35 128 442 0 -450 1
51 451 452 453 454 38 128 604 0 115 137 449 0 -180 455 456 457 458 459 31 442 60
2 0 437 449 145 0 +.00451 -.0965361644196001 -.05725 0 -1 0 0 0 -1 .003045272269
124095 52 450 546 0 460 455 151 461 +.00451 -.0925361644196001 -.05725 0 1 0 .00
308017974028713 .00872653549837395 .999961923064171 0 0 1 51 151 545 0 462 450 1
89 463 +.001982622421189955 -.0945361644196001 0 0 0 1 .002 1 0 0 40 6 451 .0007
99437767954959 .995971316317832 6 .0001769389474001685 .3508862140787845 ??.0020
93554602295095 -.0965330855625588 -.0591032777663427 .00169655239353386 -.096515
5996772625 -.0584158854297684 .001472605418042784 -.096470042041504 -.0574767866
288241 .001464272900071802 -.0964678253044235 -.0572793649384088 .00162382580774
899 -.0965037174659456 -.0562776798852615 .002097206730771 -.0965328793306472 -.
0553919670506467 41 1 452 L?.002093554602295095 -.0965330855625588 -.05910327776
63427 41 1 453 L?.002097206730771 -.0965328793306472 -.0553919670506467 204 24 4
54 4 4.05813175057684 -.003996921142958645 4.76788355050218 -.0591032777663427 4
.31953297648267 -.003979435257662355 4.56886169490481 -.0584158854297684 4.63786
24104346 -.003933877621903925 4.45453248493178 -.0574767866288241 4.702747923383
78 -.003931660884823365 4.450221310666855 -.0572793649384088 5.03733614468243 -.
00396755304634546 4.53201417910205 -.0562776798852615 5.36861508566867 -.0039967
149110471 4.7697125241034 -.0553919670506467 14 462 469 464 ?460 139 444 5 151 -
0 0 460 139 23 50 189 544 0 465 151 180 0 +0 -.0965361644196001 0 0 -1 0 0 0 -1
 141 463 449 466 466 151 141 466 146 463 463 151 14 465 447 467 ?117 196 422 5 1
89 -257 139 117 196 23 81 3 467 3001 468 465 469 0 469 470 471 0 0 14 117 454 47
2 ?139 465 111 5 180 +0 0 139 465 23 14 196 439 473 ?465 192 416 5 190 -0 0 465
 192 23 15 422 453 0 123 465 0 14 257 340 474 ?253 259 475 5 189 -217 465 253 25
9 23 14 139 462 476 ?462 117 134 5 189 -465 242 462 117 23 81 3 476 3013 468 139
 477 0 477 478 479 0 0 14 242 379 480 ?245 238 55 5 189 -139 217 245 238 23 81 3
 480 3016 468 242 478 0 478 481 482 0 0 14 245 386 483 ?220 242 66 5 221 -0 0 22
0 242 23 15 55 385 0 57 242 0 14 217 402 484 ?212 220 387 5 189 -242 257 212 220
 23 81 3 484 3022 468 217 485 0 485 486 487 0 0 14 220 394 488 ?217 245 489 5 21
3 +0 0 217 245 23 15 387 408 0 386 217 0 81 1 488 3025 281 220 490 0 491 492 493
 15 489 400 0 385 220 0 17 385 0 489 385 385 0 383 366 0 0 -80 255 1 281 494 495
 9000 1 1 1 1 1 1 1 1 0 FFFFTFTFFFFFFF1 81 3 490 3024 468 220 486 488 486 496 49
7 0 0 81 1 491 3020 281 217 498 485 499 488 500 81 1 492 3026 281 216 501 496 48
8 502 503 82 255 1 493 -724828056 14 216 417 504 ?197 212 407 5 199 -0 0 197 212
 23 81 1 501 2790 505 216 0 492 506 507 508 81 3 496 3027 468 216 492 504 490 50
4 509 0 0 81 1 502 3029 281 197 507 510 492 511 512 82 1 503 -81854048 14 197 42
4 513 ?192 216 514 5 193 -0 0 192 216 23 81 1 507 2791 505 197 515 502 501 516 5
17 81 3 510 3030 468 197 502 513 504 513 518 0 0 81 1 511 3032 281 460 519 520 5
02 521 522 82 1 512 -82116192 14 460 476 523 ?131 462 31 5 450 +0 0 131 462 23 8
1 1 519 2798 505 460 0 511 524 525 526 81 3 520 3033 468 460 511 523 513 523 527
 0 0 81 1 521 3035 281 131 525 528 511 0 529 82 1 522 -83426912 14 131 484 530 ?
264 460 125 5 455 -0 0 264 460 23 81 1 525 2799 505 131 0 521 519 531 532 81 3 5
28 3036 468 131 521 530 523 530 533 0 0 82 1 529 -83623520 80 3 468 534 535 9000
 0 0 0 0 3 6 0 0 0 FFTTTTTTFFFFTT1 1 1 81 3 530 3037 468 131 528 0 528 0 536 0 0
 81 3 523 3034 468 460 520 0 520 528 537 0 0 82 3 533 83902 1 0 82 3 537 83905 2
 0 82 3 536 83905 2 0 79 255 9 535 MOLD_PERM80 1 505 0 538 8001 0 0 0 0 3 5 0 0
 0 FFFFTFTFFFFFFF2 81 1 531 2800 505 264 0 539 525 0 540 83 255 3 532 .792156862
745098 .819607843137255 .933333333333333 81 1 539 2982 281 264 531 266 261 269 5
41 83 3 540 .792156862745098 .819607843137255 .933333333333333 81 3 266 2983 468
 264 539 0 542 336 543 0 0 81 1 261 2981 281 259 542 0 544 539 545 81 1 269 2984
 281 262 546 0 539 274 547 82 1 541 -103218784 81 1 546 2778 505 262 0 269 282 5
48 549 81 1 274 2985 281 272 550 0 269 277 551 82 1 547 -103087712 81 1 550 2775
 505 272 0 274 287 552 553 81 1 277 2986 281 275 552 0 274 279 554 82 1 551 -102
956640 81 1 552 2776 505 275 0 277 550 282 555 82 1 554 -102825568 81 1 282 2777
 505 270 0 279 552 546 556 83 3 555 .792156862745098 .819607843137255 .933333333
333333 83 3 556 .792156862745098 .819607843137255 .933333333333333 81 1 287 2774
 505 16 0 283 0 550 557 83 3 553 .792156862745098 .819607843137255 .933333333333
333 83 3 557 .792156862745098 .819607843137255 .933333333333333 81 1 548 2779 50
5 259 0 558 546 559 560 83 3 549 .792156862745098 .819607843137255 .933333333333
333 81 3 558 2979 468 259 548 542 256 542 561 0 0 81 1 559 2780 505 257 0 562 54
8 563 564 83 3 560 .792156862745098 .819607843137255 .933333333333333 81 1 562 3
008 281 257 559 565 566 567 568 81 1 563 2781 505 253 569 544 559 570 571 83 3 5
64 .792156862745098 .819607843137255 .933333333333333 81 1 569 879 572 253 0 563
 573 574 575 81 1 544 2976 281 253 563 576 252 261 577 81 1 570 2782 505 249 0 5
78 563 579 580 83 3 571 .792156862745098 .819607843137255 .933333333333333 81 3
 578 2973 468 249 570 581 582 581 583 0 0 81 1 579 2783 505 243 0 584 570 585 58
6 83 3 580 .792156862745098 .819607843137255 .933333333333333 81 3 584 2970 468
 243 579 582 241 582 587 0 0 81 1 585 2784 505 238 0 588 579 589 590 83 3 586 .7
92156862745098 .819607843137255 .933333333333333 81 1 588 2967 281 238 585 591 5
92 248 593 81 1 589 2785 505 242 0 594 585 595 596 83 3 590 .792156862745098 .81
9607843137255 .933333333333333 81 1 594 3014 281 242 589 478 567 499 597 81 1 59
5 2786 505 245 574 499 589 598 599 83 3 596 .792156862745098 .819607843137255 .9
33333333333333 81 1 574 989 572 245 0 595 569 0 600 81 1 499 3017 281 245 595 48
1 594 491 601 81 1 598 2787 505 220 0 486 595 498 602 83 3 599 .792156862745098
 .819607843137255 .933333333333333 81 3 486 3023 468 220 598 490 484 490 603 0 0
 81 1 498 2788 505 217 0 491 598 506 604 83 3 602 .792156862745098 .819607843137
255 .933333333333333 81 1 506 2789 505 212 0 592 498 501 605 83 3 604 .792156862
745098 .819607843137255 .933333333333333 81 1 592 2964 281 212 506 606 607 588 6
08 83 3 605 .792156862745098 .819607843137255 .933333333333333 81 3 606 2965 468
 212 592 215 195 215 609 0 0 81 1 607 2961 281 192 516 610 0 592 611 82 1 608 -1
05053792 81 1 516 2792 505 192 0 607 507 612 613 81 3 610 2962 468 192 607 195 2
4 195 614 0 0 82 1 611 -105578080 81 3 195 2963 468 192 610 0 610 606 615 0 0 81
 3 24 2960 468 10 0 0 0 610 616 0 0 82 3 614 83902 1 0 82 3 616 83902 1 0 82 3 6
15 83905 2 0 81 1 612 2793 505 196 573 566 516 617 618 83 3 613 .792156862745098
 .819607843137255 .933333333333333 81 1 573 790 572 196 0 612 515 569 619 81 1 5
66 3005 281 196 612 620 621 562 622 81 1 617 2794 505 465 0 623 612 624 625 83 3
 618 .792156862745098 .819607843137255 .933333333333333 81 1 623 2999 281 465 61
7 469 288 621 626 81 1 624 2795 505 117 0 621 617 627 628 83 3 625 .792156862745
098 .819607843137255 .933333333333333 81 1 621 3002 281 117 624 470 623 566 629
 81 1 627 2796 505 139 0 567 624 524 630 83 3 628 .792156862745098 .819607843137
255 .933333333333333 81 1 567 3011 281 139 627 477 562 594 631 81 1 524 2797 505
 462 0 288 627 519 632 83 3 630 .792156862745098 .819607843137255 .9333333333333
33 81 1 288 2996 281 462 524 633 283 623 634 83 3 632 .792156862745098 .81960784
3137255 .933333333333333 81 3 633 2997 468 462 288 464 370 464 635 0 0 82 1 634
 -95682144 81 3 464 2998 468 462 633 0 633 469 636 0 0 81 3 370 2995 468 369 0 0
 363 633 637 0 0 82 3 635 83902 1 0 81 3 363 2994 468 170 0 0 357 370 638 0 0 82
 3 637 83902 1 0 81 3 357 2993 468 353 0 0 346 363 639 0 0 82 3 638 83902 1 0 81
 3 346 2992 468 344 0 0 342 357 640 0 0 82 3 639 83902 1 0 81 3 342 2991 468 340
 0 0 339 346 641 0 0 82 3 640 83902 1 0 81 3 339 2990 468 186 0 0 336 342 642 0
 0 82 3 641 83902 1 0 81 3 336 2989 468 334 0 0 266 339 643 0 0 82 3 642 83902 1
 0 82 3 643 83902 1 0 81 3 469 3000 468 465 623 467 464 467 644 0 0 82 3 636 839
05 2 0 82 3 644 83902 1 0 81 3 477 3012 468 139 567 476 474 476 645 0 0 82 1 631
 -95813216 81 3 474 3010 468 257 565 0 565 477 646 0 0 82 3 645 83902 1 0 81 3 5
65 3009 468 257 562 474 473 474 647 0 0 82 3 646 83905 2 0 81 3 473 3007 468 196
 620 0 620 565 648 0 0 82 3 647 83902 1 0 81 3 620 3006 468 196 566 473 472 473
 649 0 0 82 3 648 83905 2 0 81 3 472 3004 468 117 470 0 470 620 650 0 0 82 3 649
 83902 1 0 81 3 470 3003 468 117 621 472 467 472 651 0 0 82 3 650 83905 2 0 82 3
 651 83902 4 0 82 1 629 -95616608 82 1 626 -95551072 82 1 622 -95420000 80 1 572
 652 653 9000 0 0 0 0 3 5 0 0 0 FFFFTFFFFFFFFF1 81 1 515 771 572 197 0 507 0 573
 654 82 1 619 1 82 1 654 1 79 18 653 FILLET_CORNER_FACE81 3 215 2966 468 212 606
 0 606 591 655 0 0 82 3 609 83902 4 0 81 3 591 2968 468 238 588 241 215 241 656
 0 0 82 3 655 83905 2 0 81 3 241 2969 468 238 591 0 591 584 657 0 0 82 3 656 839
02 4 0 82 3 657 83905 2 0 82 3 603 83902 1 0 81 3 481 3018 468 245 499 483 480 4
83 658 0 0 82 1 601 -96271968 81 3 483 3019 468 245 481 0 481 485 659 0 0 82 3 6
58 83902 1 0 81 3 485 3021 468 217 491 484 483 484 660 0 0 82 3 659 83905 2 0 82
 3 660 83902 1 0 82 1 600 1 81 3 478 3015 468 242 594 480 476 480 661 0 0 82 1 5
97 -96140896 82 3 661 83902 1 0 81 1 248 2972 281 243 582 0 588 252 662 82 1 593
 -104463968 81 3 582 2971 468 243 584 248 584 578 663 0 0 81 1 252 2975 281 249
 581 0 248 544 664 82 1 662 -737869720 81 3 581 2974 468 249 578 252 578 576 665
 0 0 82 1 664 -737738648 81 3 576 2977 468 253 544 256 581 256 666 0 0 82 3 665
 83905 2 0 81 3 256 2978 468 253 576 0 576 558 667 0 0 82 3 666 83902 1 0 82 3 6
67 83905 2 0 82 3 663 83905 2 0 82 3 587 83902 1 0 82 3 583 83902 1 0 82 1 577 -
104005216 82 1 575 1 82 1 568 -95288928 81 3 542 2980 468 259 558 261 558 266 66
8 0 0 82 3 561 83902 1 0 82 3 668 83905 2 0 82 1 545 -737476504 82 3 543 83905 3
 0 79 15 538 SDL/TYSA_COLOUR51 455 547 0 131 0 450 669 +0 -.0945361644196001 -.0
5977737757881 -1 0 0 .002 0 0 1 141 669 670 671 671 455 38 670 606 0 26 0 137 0
 -450 455 672 673 674 675 141 671 128 669 669 455 16 26 230 0 ?37 10 369 670 0 0
 1 30 137 605 0 127 670 128 0 -0 -.0965361644196001 -.05977737757881 -1 0 0 40 5
 672 .002698204297111845 1.003312592777682 5 .0001932017190825875 .3824490911609
595 ??.00620883659226676 -.0965361644196001 -.05977737757881 .00528492291270863
 -.0964919856540141 -.0601954245845585 .0042816664964566 -.0964700726727332 -.06
02872784206055 .003314611604736745 -.0965173555297857 -.0600510229422305 .002458
724370261575 -.0965169753152745 -.0595009934338638 41 1 673 L?.00620883659226676
 -.0965361644196001 -.05977737757881 41 1 674 L?.002458724370261575 -.0965169753
152745 -.0595009934338638 204 20 675 4 2.54978721252384 -.004 4.71238898038469 -
.00620883659226676 2.88432889383796 -.003955821234414015 4.50181268195928 -.0052
8492291270863 3.216628516684305 -.003933908253133105 4.454592551003415 -.0042816
664964566 3.54496029310917 -.003981191110185605 4.57513576487489 -.0033146116047
36745 3.880602614541705 -.003980810895674385 4.85102471972232 -.0024587243702615
75 16 127 216 0 ?126 115 124 137 130 138 1 17 126 0 125 350 114 96 109 127 0 418
 +16 138 184 0 ?132 348 374 137 127 130 1 17 132 0 125 37 676 81 677 138 0 441 +
17 676 0 125 132 25 21 373 347 0 376 -17 677 0 475 446 441 21 132 138 0 676 -17
 441 0 475 677 445 81 33 437 0 0 +15 475 346 0 441 257 0 17 445 0 475 441 446 42
 443 377 0 0 -17 33 0 31 28 133 42 441 437 0 445 -15 31 482 0 28 460 439 17 133
 0 31 33 32 81 37 26 0 132 -18 42 299 0 34 412 98 40 ?1 18 412 298 0 678 21 42 4
10 ?1 17 678 0 258 376 80 412 368 348 0 443 -18 21 302 0 677 81 412 8 ?1 15 258
 354 0 678 253 0 17 376 0 258 373 678 21 446 374 0 0 +17 80 0 258 678 373 78 679
 344 0 680 +17 368 0 444 82 443 78 678 348 0 0 +15 444 475 0 34 462 0 17 82 0 44
4 60 368 62 680 369 0 365 +17 60 0 444 58 82 52 365 343 0 67 -17 680 0 681 679 6
82 78 82 369 0 368 -17 365 0 66 61 67 62 60 343 0 682 +15 66 393 0 64 245 0 17 6
1 0 66 64 365 54 682 340 0 683 +17 67 0 66 365 64 52 56 382 0 0 +17 682 0 681 68
0 683 62 61 340 0 0 -15 681 523 0 684 264 0 17 683 0 681 682 685 54 87 170 0 68
 -17 685 0 681 683 684 85 91 186 0 0 -17 87 0 407 360 68 85 683 170 0 408 +17 68
 0 407 87 70 54 64 69 0 0 -15 407 423 0 228 216 0 17 70 0 407 68 234 50 76 172 0
 56 +17 234 0 407 70 168 51 686 176 0 687 +17 76 0 55 57 56 51 70 172 0 234 -16
 172 200 0 ?70 382 235 163 166 171 1 17 56 0 55 76 53 50 67 382 0 0 -16 171 206
 0 ?402 165 210 163 172 166 1 17 402 0 407 228 360 73 388 171 0 386 +17 228 0 40
7 168 402 397 401 165 0 0 +17 388 0 387 394 386 404 402 171 0 0 -17 394 0 387 38
9 388 393 395 210 0 0 -17 395 0 514 408 355 404 394 210 0 388 +15 514 431 0 408
 197 0 17 408 0 514 91 395 85 360 209 0 685 -17 355 0 514 395 91 393 392 169 0 3
91 +17 91 0 514 355 408 88 685 186 0 684 +17 392 0 198 358 391 88 355 169 0 0 -1
7 358 0 198 352 392 415 684 353 0 688 +17 352 0 198 158 358 413 417 159 0 0 +17
 684 0 681 685 688 88 358 353 0 392 -17 688 0 681 684 689 415 95 334 0 417 -17 6
89 0 681 688 679 93 25 10 0 350 -17 95 0 416 106 417 93 688 334 0 689 +17 417 0
 416 95 414 415 352 159 0 0 -15 416 446 0 106 196 0 17 106 0 416 414 95 96 350 3
37 0 126 -17 350 0 125 25 126 93 106 337 0 0 +17 25 0 125 676 350 47 689 10 0 37
3 +17 373 0 258 80 376 47 676 347 0 679 +17 679 0 681 689 680 47 80 344 0 0 -17
 158 0 198 143 352 92 419 156 0 0 +17 419 0 422 418 123 413 158 156 0 352 -17 41
8 0 422 109 419 96 414 178 0 0 -17 109 0 422 123 418 107 126 127 0 114 -16 178 2
17 0 ?414 124 334 188 0 0 1 17 168 0 407 234 228 46 399 166 0 175 +17 175 0 134
 399 45 46 690 173 0 686 +17 45 0 134 175 36 43 447 135 0 448 -17 690 0 244 49 6
86 43 175 173 0 0 -17 686 0 244 690 687 46 234 176 0 0 -15 244 377 0 49 238 691
 17 687 0 244 686 49 51 57 235 0 0 -17 49 0 244 687 690 48 448 148 0 58 -17 57 0
 55 53 76 48 687 235 0 0 +17 448 0 444 447 58 43 49 148 0 690 +16 148 196 0 ?448
 173 378 146 0 0 1 17 58 0 444 448 60 48 53 59 0 57 +15 691 378 0 380 238 0 17 3
80 0 691 380 380 0 692 378 0 0 +17 692 0 250 692 692 0 380 378 0 0 -15 250 369 0
 692 243 0 17 36 0 134 45 129 11 32 136 0 447 +17 32 0 31 133 28 29 36 136 0 0 -
17 446 0 475 445 677 412 376 374 0 0 -15 439 483 0 436 460 0 81 3 513 3031 468 1
97 510 0 510 520 693 0 0 82 3 527 83902 4 0 82 3 693 83905 2 0 83 3 526 .7921568
62745098 .819607843137255 .933333333333333 81 3 504 3028 468 216 496 0 496 510 6
94 0 0 82 3 518 83902 1 0 82 3 694 83905 2 0 83 3 517 .792156862745098 .81960784
3137255 .933333333333333 82 3 509 83902 1 0 83 3 508 .792156862745098 .819607843
137255 .933333333333333 82 1 500 -96337504 82 3 497 83905 2 0 79 14 495 SWEntUnc
hanged82 3 487 83905 2 0 82 3 482 83905 2 0 82 3 479 83905 2 0 82 3 471 83905 2
 0 141 461 670 695 695 450 141 695 449 461 461 450 40 6 456 .00079943776795495 .
995971316317833 6 .000176938947400169 .3508862140787815 ??.0641032777663427 -.09
65330855625588 -.0596664453977049 .0634158854297684 -.0965155996772625 -.0600634
476064661 .0624767866288241 -.096470042041504 -.0602873945819572 .06227936493840
88 -.0964678253044235 -.0602957270999282 .0612776798852615 -.0965037174659456 -.
060136174192251 .0603919670506467 -.0965328793306472 -.059662793269229 41 1 457
 L?.0641032777663427 -.0965330855625588 -.0596664453977049 41 1 458 L?.060391967
0506467 -.0965328793306472 -.059662793269229 204 24 459 4 2.487335423781935 -.00
3996921142958645 4.76788355050219 -.0641032777663427 2.74873664968776 -.00397943
525766236 4.56886169490482 -.0634158854297684 3.067066083639685 -.00393387762190
3925 4.45453248493178 -.0624767866288241 3.13195159658888 -.003931660884823365 4
.45022131066685 -.0622793649384088 3.466539817887525 -.00396755304634546 4.53201
417910205 -.0612776798852615 3.79781875887377 -.0039967149110471 4.7697125241033
9 -.0603919670506467 17 440 0 263 440 440 0 436 435 0 0 -15 263 338 0 440 259 0
 15 267 522 0 293 264 681 17 314 0 267 103 100 104 434 311 0 305 +17 434 0 278 3
25 308 98 314 311 0 321 -15 278 139 0 434 275 0 17 325 0 278 323 434 430 321 316
 0 327 -17 308 0 278 434 323 104 307 312 0 0 +17 307 0 276 306 305 326 308 312 0
 323 -17 103 0 267 293 314 101 305 303 0 290 +17 119 0 111 113 112 92 143 160 0
 158 -15 384 416 0 383 212 0 16 187 186 0 ?696 378 347 179 0 0 1 17 696 0 118 69
6 696 0 697 187 0 0 +15 118 461 0 696 117 0 17 697 0 254 697 697 0 696 187 0 0 -
15 254 361 0 697 249 0 82 1 289 -102432352 82 1 284 -102694496 141 219 211 698 6
98 199 141 698 223 219 219 199 141 191 128 699 699 180 141 699 177 191 191 180 4
0 6 152 .000799437767954953 .995971316317832 6 .000176938947400168 .350886214078
7835 ??.00209355460229511 -.0965330855625588 -.00636327776634271 .00169655239353
387 -.0965155996772625 -.0056758854297684 .001472605418042786 -.096470042041504
 -.00473678662882409 .001464272900071802 -.0964678253044235 -.00453936493840876
 .001623825807748985 -.0965037174659456 -.003537679885261535 .00209720673077099
 -.0965328793306472 -.002651967050646685 41 1 153 L?.00209355460229511 -.0965330
855625588 -.00636327776634271 41 1 154 L?.00209720673077099 -.0965328793306472 -
.002651967050646685 204 24 155 4 4.058131750576835 -.003996921142958645 4.767883
55050218 -.00636327776634271 4.31953297648266 -.00397943525766236 4.568861694904
82 -.0056758854297684 4.63786241043459 -.003933877621903925 4.45453248493178 -.0
0473678662882409 4.70274792338377 -.003931660884823365 4.450221310666855 -.00453
936493840876 5.03733614468242 -.00396755304634546 4.53201417910205 -.00353767988
5261535 5.36861508566866 -.0039967149110471 4.76971252410339 -.00265196705064668
5 19 17 100 0 1 0 9 5 S0 74 4 CI16 index_map_offset0 0 1 dCCZ20 15 11 0 0 700 53
0 574 701 521 702 703 704 13 531 2 0 0 0 0 0 0 0 0 0 81 2 700 121 705 1 0 701 0
 0 0 706 81 2 701 1044 707 1 700 702 0 0 0 708 81 2 702 1321 709 1 701 703 0 0 7
10 0 81 1 703 2728 711 1 702 704 0 0 712 81 2 704 2768 713 1 703 13 0 0 0 714 81
 2 13 2771 715 1 704 2 0 0 0 0 80 2 715 716 717 9000 0 0 0 0 3 5 0 0 0 FFTFFFFFF
FFFFF9 1 79 16 717 BODY_RECIPE_200180 2 713 718 719 9000 0 0 0 0 3 5 0 0 0 FFTFF
FFFFFFFFF9 1 82 1 714 1 79 24 719 BODY_IN_LIGHTWEIGHT_PERM80 1 711 720 721 9000
 1 1 1 1 1 1 1 1 0 FFTFFFFFFFFFFF1 82 1 712 16896924 79 10 721 BODY_MATCH80 2 70
9 722 723 8004 0 0 0 0 3 5 0 0 0 FFTFFFFFFFFFFF2 3 83 1 710 1 79 16 723 SDL/TYSA
_DENSITY80 2 707 724 725 9000 0 0 0 0 3 5 0 0 0 FFTFFFFFFFFFFF9 1 82 1 708 26 79
 30 725 LAST_BODY_MODIFYING_FEATURE_ID80 2 705 726 727 9000 0 0 0 0 3 5 0 0 0 FF
TFFFFFFFFFFF9 1 82 1 706 105 79 19 727 ENT_TIME_STAMP_200180 2 12 728 729 9000 0
 0 0 0 3 5 0 0 0 FFTFFFFFFFFFFF9 1 82 1 14 101 79 12 729 ATOM_ID_20011 0 
