G04*
G04 #@! TF.GenerationSoftware,Altium Limited,Altium Designer,23.4.1 (23)*
G04*
G04 Layer_Color=128*
%FSLAX44Y44*%
%MOMM*%
G71*
G04*
G04 #@! TF.SameCoordinates,08943A89-DF08-454F-A29C-BC673E474111*
G04*
G04*
G04 #@! TF.FilePolarity,Positive*
G04*
G01*
G75*
%ADD10C,0.1270*%
D10*
X287500Y336250D02*
X296500D01*
X292000Y331750D02*
Y340750D01*
X287500Y260250D02*
X296500D01*
X292000Y255750D02*
Y264750D01*
X172700Y17000D02*
X183700D01*
X178200Y11500D02*
Y22500D01*
X172700Y42400D02*
X183700D01*
X178200Y36900D02*
Y47900D01*
X172700Y67800D02*
X183700D01*
X178200Y62300D02*
Y73300D01*
X172700Y93200D02*
X183700D01*
X178200Y87700D02*
Y98700D01*
X172700Y118600D02*
X183700D01*
X178200Y113100D02*
Y124100D01*
X172700Y144000D02*
X183700D01*
X178200Y138500D02*
Y149500D01*
X172700Y169400D02*
X183700D01*
X178200Y163900D02*
Y174900D01*
X172700Y194800D02*
X183700D01*
X178200Y189300D02*
Y200300D01*
X172700Y220200D02*
X183700D01*
X178200Y214700D02*
Y225700D01*
X172700Y245600D02*
X183700D01*
X178200Y240100D02*
Y251100D01*
X172700Y271000D02*
X183700D01*
X178200Y265500D02*
Y276500D01*
X172700Y296400D02*
X183700D01*
X178200Y290900D02*
Y301900D01*
X172700Y321800D02*
X183700D01*
X178200Y316300D02*
Y327300D01*
X172700Y347200D02*
X183700D01*
X178200Y341700D02*
Y352700D01*
X96500Y17000D02*
X107500D01*
X102000Y11500D02*
Y22500D01*
X96500Y42400D02*
X107500D01*
X102000Y36900D02*
Y47900D01*
X96500Y67800D02*
X107500D01*
X102000Y62300D02*
Y73300D01*
X96500Y93200D02*
X107500D01*
X102000Y87700D02*
Y98700D01*
X96500Y118600D02*
X107500D01*
X102000Y113100D02*
Y124100D01*
X96500Y144000D02*
X107500D01*
X102000Y138500D02*
Y149500D01*
X96500Y169400D02*
X107500D01*
X102000Y163900D02*
Y174900D01*
X96500Y194800D02*
X107500D01*
X102000Y189300D02*
Y200300D01*
X96500Y220200D02*
X107500D01*
X102000Y214700D02*
Y225700D01*
X96500Y245600D02*
X107500D01*
X102000Y240100D02*
Y251100D01*
X96500Y271000D02*
X107500D01*
X102000Y265500D02*
Y276500D01*
X96500Y296400D02*
X107500D01*
X102000Y290900D02*
Y301900D01*
X96500Y321800D02*
X107500D01*
X102000Y316300D02*
Y327300D01*
X96500Y347200D02*
X107500D01*
X102000Y341700D02*
Y352700D01*
X337500Y423000D02*
X360500D01*
X349000Y411500D02*
Y434500D01*
X217100Y423000D02*
X240100D01*
X228600Y411500D02*
Y434500D01*
X271700Y395900D02*
X280900D01*
X276300Y391300D02*
Y400500D01*
X296700Y395900D02*
X305900D01*
X301300Y391300D02*
Y400500D01*
X296700Y375900D02*
X305900D01*
X301300Y371300D02*
Y380500D01*
X271700Y375900D02*
X280900D01*
X276300Y371300D02*
Y380500D01*
X384000Y450000D02*
X416000D01*
X400000Y434000D02*
Y466000D01*
X414000Y386300D02*
X425000D01*
X419500Y380800D02*
Y391800D01*
X414000Y360900D02*
X425000D01*
X419500Y355400D02*
Y366400D01*
X414000Y335500D02*
X425000D01*
X419500Y330000D02*
Y341000D01*
X414000Y310100D02*
X425000D01*
X419500Y304600D02*
Y315600D01*
X414000Y284700D02*
X425000D01*
X419500Y279200D02*
Y290200D01*
X414000Y259300D02*
X425000D01*
X419500Y253800D02*
Y264800D01*
X244500Y145850D02*
X255500D01*
X250000Y140350D02*
Y151350D01*
X244500Y120450D02*
X255500D01*
X250000Y114950D02*
Y125950D01*
X244500Y95050D02*
X255500D01*
X250000Y89550D02*
Y100550D01*
X244500Y69650D02*
X255500D01*
X250000Y64150D02*
Y75150D01*
X244500Y44250D02*
X255500D01*
X250000Y38750D02*
Y49750D01*
X244500Y18850D02*
X255500D01*
X250000Y13350D02*
Y24350D01*
X311500Y69400D02*
X322500D01*
X317000Y63900D02*
Y74900D01*
X311500Y44000D02*
X322500D01*
X317000Y38500D02*
Y49500D01*
X311500Y18600D02*
X322500D01*
X317000Y13100D02*
Y24100D01*
X24000Y40000D02*
X56000D01*
X40000Y24000D02*
Y56000D01*
X140000Y456250D02*
X157000D01*
X148500Y447750D02*
Y464750D01*
X90000Y406250D02*
X107000D01*
X98500Y397750D02*
Y414750D01*
X190000Y406250D02*
X207000D01*
X198500Y397750D02*
Y414750D01*
X120000Y406250D02*
X137000D01*
X128500Y397750D02*
Y414750D01*
X160000Y406250D02*
X177000D01*
X168500Y397750D02*
Y414750D01*
X192500Y481250D02*
X204500D01*
X198500Y475250D02*
Y487250D01*
X192500Y456250D02*
X204500D01*
X198500Y450250D02*
Y462250D01*
X142500Y406250D02*
X154500D01*
X148500Y400250D02*
Y412250D01*
X92500Y481250D02*
X104500D01*
X98500Y475250D02*
Y487250D01*
X92500Y456250D02*
X104500D01*
X98500Y450250D02*
Y462250D01*
X384000Y40000D02*
X416000D01*
X400000Y24000D02*
Y56000D01*
X24000Y450000D02*
X56000D01*
X40000Y434000D02*
Y466000D01*
X15500Y283200D02*
X26500D01*
X21000Y277700D02*
Y288700D01*
X15500Y308600D02*
X26500D01*
X21000Y303100D02*
Y314100D01*
X15500Y334000D02*
X26500D01*
X21000Y328500D02*
Y339500D01*
X15500Y359400D02*
X26500D01*
X21000Y353900D02*
Y364900D01*
X46752Y217924D02*
X49752D01*
X48252Y216424D02*
Y219424D01*
X182134Y232910D02*
X185134D01*
X183634Y231410D02*
Y234410D01*
X243348Y252976D02*
X246348D01*
X244848Y251476D02*
Y254476D01*
X218456Y204970D02*
X221456D01*
X219956Y203470D02*
Y206470D01*
X45228Y126992D02*
X48228D01*
X46728Y125492D02*
Y128492D01*
M02*
