G04*
G04 #@! TF.GenerationSoftware,Altium Limited,Altium Designer,23.4.1 (23)*
G04*
G04 Layer_Physical_Order=2*
G04 Layer_Color=16711680*
%FSLAX44Y44*%
%MOMM*%
G71*
G04*
G04 #@! TF.SameCoordinates,B45B81E9-B8C5-464F-8B8B-85F6CD8424D1*
G04*
G04*
G04 #@! TF.FilePolarity,Positive*
G04*
G01*
G75*
%ADD11C,0.2000*%
%ADD14R,1.3000X0.9000*%
%ADD31C,1.4080*%
%ADD32O,2.0000X1.6000*%
%ADD33R,2.0000X1.6000*%
%ADD34C,3.4500*%
%ADD35C,1.4310*%
%ADD36R,1.4310X1.4310*%
%ADD37C,7.4000*%
%ADD38C,2.5500*%
%ADD39C,2.4000*%
%ADD40C,0.6000*%
%ADD41R,1.4500X0.9000*%
%ADD42C,1.0000*%
%ADD43C,0.4000*%
G36*
X437000Y3000D02*
X3000D01*
Y199000D01*
X23000Y199500D01*
X49917D01*
X53922Y195496D01*
Y195496D01*
X54667Y194534D01*
X55116Y193862D01*
X65510Y183469D01*
Y182000D01*
X60500D01*
Y173268D01*
X51116Y163884D01*
X50232Y162561D01*
X49922Y161000D01*
X49922Y161000D01*
Y133307D01*
X48866Y132601D01*
X47922Y132992D01*
X45535D01*
X43329Y132079D01*
X43329Y132078D01*
X42000D01*
Y139000D01*
X23000D01*
Y124000D01*
X35606D01*
X36000Y123922D01*
X36000Y123922D01*
X41505D01*
X41641Y123593D01*
X43329Y121905D01*
X45535Y120992D01*
X47922D01*
X50127Y121905D01*
X51815Y123593D01*
X52601Y125493D01*
X53901Y125989D01*
X64748Y115143D01*
Y112000D01*
X60500D01*
Y97000D01*
X79500D01*
Y112000D01*
X72904D01*
Y116832D01*
X72904Y116832D01*
X72594Y118393D01*
X71710Y119716D01*
X58078Y133347D01*
Y159311D01*
X65690Y166922D01*
X66500D01*
X66500Y166922D01*
X66894Y167000D01*
X79500D01*
Y182000D01*
X73666D01*
Y185158D01*
X73666Y185158D01*
X73356Y186719D01*
X72472Y188042D01*
X72472Y188042D01*
X62078Y198435D01*
Y223311D01*
X65313Y226546D01*
X76535D01*
X81922Y221159D01*
Y206045D01*
X81922Y206045D01*
X82232Y204484D01*
X83116Y203161D01*
X89204Y197073D01*
X88905Y194800D01*
X89283Y191928D01*
X90391Y189252D01*
X92155Y186955D01*
X94452Y185191D01*
X97128Y184083D01*
X100000Y183705D01*
X104000D01*
X106872Y184083D01*
X109547Y185191D01*
X111845Y186955D01*
X113608Y189252D01*
X114717Y191928D01*
X115095Y194800D01*
X114717Y197671D01*
X113864Y199730D01*
X114615Y201000D01*
X140000D01*
X142607Y203607D01*
X143490Y203432D01*
X143490Y203432D01*
X184485D01*
X185830Y202086D01*
X185830Y202086D01*
X187153Y201202D01*
X188714Y200892D01*
X195746D01*
X196750Y200250D01*
Y190518D01*
X193311Y187078D01*
X148710D01*
X148710Y187078D01*
X147149Y186768D01*
X145826Y185884D01*
X145826Y185884D01*
X125116Y165174D01*
X124232Y163851D01*
X123922Y162290D01*
X123922Y162290D01*
Y95489D01*
X106926Y78494D01*
X106872Y78517D01*
X104000Y78895D01*
X100000D01*
X97128Y78517D01*
X94452Y77408D01*
X92155Y75645D01*
X90391Y73347D01*
X89283Y70671D01*
X88905Y67800D01*
X89283Y64928D01*
X90391Y62252D01*
X92155Y59955D01*
X94452Y58191D01*
X97128Y57083D01*
X100000Y56705D01*
X104000D01*
X106872Y57083D01*
X109547Y58191D01*
X111845Y59955D01*
X113608Y62252D01*
X114717Y64928D01*
X115095Y67800D01*
X114843Y69717D01*
X115680Y70671D01*
X164520D01*
X165357Y69717D01*
X165105Y67800D01*
X165483Y64928D01*
X166591Y62252D01*
X168355Y59955D01*
X170653Y58191D01*
X173328Y57083D01*
X176200Y56705D01*
X180200D01*
X183071Y57083D01*
X185747Y58191D01*
X188045Y59955D01*
X189652Y62048D01*
X190448Y61939D01*
X190922Y61706D01*
Y53750D01*
X190922Y53750D01*
X191232Y52189D01*
X192116Y50866D01*
X198000Y44983D01*
Y33750D01*
X217000D01*
Y48750D01*
X205767D01*
X199078Y55439D01*
Y84311D01*
X205518Y90750D01*
X216750D01*
Y105750D01*
X204144D01*
X203750Y105828D01*
X203750Y105828D01*
X202939D01*
X198078Y110689D01*
Y128200D01*
X198078Y128200D01*
X198325Y128500D01*
X216000D01*
Y143500D01*
X198380D01*
Y153298D01*
X198380Y153298D01*
X198070Y154859D01*
X197186Y156182D01*
X197186Y156182D01*
X189681Y163686D01*
X189808Y163852D01*
X190917Y166528D01*
X191295Y169400D01*
X190917Y172271D01*
X189808Y174947D01*
X188045Y177245D01*
X187428Y177719D01*
X187836Y178922D01*
X195000D01*
X195000Y178922D01*
X196561Y179232D01*
X197884Y180116D01*
X203018Y185250D01*
X217250D01*
Y198454D01*
X218306Y199159D01*
X218762Y198970D01*
X221150D01*
X221188Y198986D01*
X227816Y192359D01*
Y100892D01*
X227816Y100892D01*
X228126Y99331D01*
X229010Y98008D01*
X234852Y92166D01*
X236175Y91282D01*
X237736Y90972D01*
X237783D01*
X238392Y89502D01*
X240155Y87205D01*
X242453Y85442D01*
X245128Y84333D01*
X248000Y83955D01*
X252000D01*
X254872Y84333D01*
X257548Y85442D01*
X259845Y87205D01*
X261609Y89502D01*
X262717Y92178D01*
X263095Y95050D01*
X262717Y97921D01*
X261609Y100597D01*
X259845Y102895D01*
X257548Y104658D01*
X254872Y105767D01*
X252000Y106145D01*
X248000D01*
X245128Y105767D01*
X242453Y104658D01*
X240155Y102895D01*
X238982Y101367D01*
X237342Y101212D01*
X235972Y102581D01*
Y134000D01*
X287506D01*
Y41648D01*
X287506Y41648D01*
X287816Y40087D01*
X288700Y38764D01*
X299348Y28116D01*
X299348Y28116D01*
X300671Y27232D01*
X302232Y26922D01*
X302232Y26922D01*
X327000D01*
X327000Y26922D01*
X328561Y27232D01*
X329884Y28116D01*
X354884Y53116D01*
X355768Y54439D01*
X356078Y56000D01*
X356078Y56000D01*
Y255311D01*
X381389Y280622D01*
X407283D01*
X407891Y279153D01*
X409655Y276855D01*
X411953Y275092D01*
X414628Y273983D01*
X417500Y273605D01*
X421500D01*
X424371Y273983D01*
X427047Y275092D01*
X429345Y276855D01*
X431108Y279153D01*
X432217Y281828D01*
X432595Y284700D01*
X432217Y287572D01*
X431108Y290248D01*
X429345Y292545D01*
X427047Y294309D01*
X424371Y295417D01*
X421500Y295795D01*
X417500D01*
X414628Y295417D01*
X411953Y294309D01*
X409655Y292545D01*
X407891Y290248D01*
X407283Y288778D01*
X384092D01*
X384000Y289000D01*
Y309144D01*
X406110Y331254D01*
X407415Y331102D01*
X407891Y329953D01*
X409655Y327655D01*
X411953Y325892D01*
X414628Y324783D01*
X417500Y324405D01*
X421500D01*
X424371Y324783D01*
X427047Y325892D01*
X429345Y327655D01*
X431108Y329953D01*
X432217Y332629D01*
X432595Y335500D01*
X432217Y338372D01*
X431108Y341048D01*
X429345Y343345D01*
X427047Y345109D01*
X424371Y346217D01*
X421500Y346595D01*
X417500D01*
X414628Y346217D01*
X411953Y345109D01*
X409655Y343345D01*
X407891Y341048D01*
X407283Y339578D01*
X404588D01*
X403027Y339268D01*
X401704Y338384D01*
X401704Y338384D01*
X346567Y283246D01*
X315753D01*
X283078Y315922D01*
Y338311D01*
X294249Y349482D01*
X324350D01*
X324350Y349482D01*
X325911Y349792D01*
X327234Y350676D01*
X358779Y382222D01*
X406500D01*
Y375300D01*
X432500D01*
Y397300D01*
X406500D01*
Y390378D01*
X357090D01*
X357090Y390378D01*
X355529Y390068D01*
X354206Y389184D01*
X322661Y357638D01*
X293059D01*
Y367984D01*
X294329Y368510D01*
X295065Y367774D01*
X297380Y366437D01*
X299963Y365745D01*
X302637D01*
X305220Y366437D01*
X307535Y367774D01*
X309426Y369664D01*
X310763Y371980D01*
X311455Y374563D01*
Y377237D01*
X310763Y379819D01*
X309426Y382135D01*
X307535Y384026D01*
X305504Y385198D01*
X305374Y385766D01*
Y386034D01*
X305504Y386601D01*
X307535Y387774D01*
X309426Y389664D01*
X310763Y391980D01*
X311455Y394563D01*
Y397237D01*
X310763Y399819D01*
X309426Y402135D01*
X307535Y404026D01*
X305220Y405363D01*
X302637Y406055D01*
X299963D01*
X297380Y405363D01*
X295065Y404026D01*
X293174Y402135D01*
X291837Y399819D01*
X291145Y397237D01*
Y394563D01*
X291837Y391980D01*
X293174Y389664D01*
X295065Y387774D01*
X297096Y386601D01*
X297226Y386034D01*
Y385766D01*
X297096Y385198D01*
X295065Y384026D01*
X293174Y382135D01*
X293057Y381932D01*
X292885Y381842D01*
X291479Y381739D01*
X291056Y382088D01*
X290642Y382310D01*
X290249Y382567D01*
X290120Y382591D01*
X290004Y382653D01*
X289537Y382701D01*
X289076Y382787D01*
X288509Y383180D01*
X288000Y383853D01*
Y387000D01*
X267272D01*
X267163Y387163D01*
X266171Y387826D01*
X265000Y388059D01*
X70000D01*
X70000Y388059D01*
X68829Y387826D01*
X67837Y387163D01*
X67837Y387163D01*
X31837Y351163D01*
X31767Y351059D01*
X9000D01*
X9000Y351059D01*
X7829Y350826D01*
X6837Y350163D01*
X6837Y350163D01*
X4173Y347499D01*
X3000Y347985D01*
Y487000D01*
X89961D01*
X90694Y485730D01*
X90113Y484724D01*
X89500Y482435D01*
Y480065D01*
X90113Y477776D01*
X91298Y475724D01*
X92974Y474048D01*
X95026Y472863D01*
X97315Y472250D01*
X99685D01*
X101974Y472863D01*
X104026Y474048D01*
X105702Y475724D01*
X106887Y477776D01*
X107500Y480065D01*
Y482435D01*
X106887Y484724D01*
X106306Y485730D01*
X107039Y487000D01*
X189961D01*
X190694Y485730D01*
X190114Y484724D01*
X189500Y482435D01*
Y480065D01*
X190114Y477776D01*
X191298Y475724D01*
X192974Y474048D01*
X195026Y472863D01*
X197315Y472250D01*
X199685D01*
X201974Y472863D01*
X204026Y474048D01*
X205702Y475724D01*
X206887Y477776D01*
X207500Y480065D01*
Y482435D01*
X206887Y484724D01*
X206306Y485730D01*
X207039Y487000D01*
X437000D01*
Y3000D01*
D02*
G37*
G36*
X265000Y365000D02*
X288000D01*
Y379254D01*
X289109Y379729D01*
X290000Y378994D01*
Y356660D01*
X289676Y356444D01*
X289676Y356444D01*
X276116Y342884D01*
X275232Y341561D01*
X275151Y341151D01*
X224078Y290078D01*
X220841D01*
X220000Y291000D01*
Y308000D01*
X217000D01*
Y310000D01*
X217750Y310750D01*
X218750D01*
Y311750D01*
X220000Y313000D01*
Y335000D01*
X196000Y359000D01*
X91000D01*
X90200Y358200D01*
X89000D01*
Y357000D01*
X78000Y346000D01*
X52000D01*
Y321000D01*
X51348Y320000D01*
X13000D01*
X9000Y316000D01*
Y313203D01*
X8283Y311472D01*
X7905Y308600D01*
X8283Y305728D01*
X9000Y303997D01*
Y287803D01*
X8283Y286071D01*
X7905Y283200D01*
X8283Y280328D01*
X9000Y278597D01*
Y274000D01*
X13000Y270000D01*
X65000D01*
Y249000D01*
X60000D01*
Y234000D01*
X3000D01*
Y342000D01*
X9000Y348000D01*
X33000D01*
X33400Y348400D01*
X34000D01*
Y349000D01*
X70000Y385000D01*
X265000D01*
Y365000D01*
D02*
G37*
%LPC*%
G36*
X199685Y465250D02*
X197315D01*
X195026Y464637D01*
X192974Y463452D01*
X191298Y461776D01*
X190114Y459724D01*
X189500Y457435D01*
Y455065D01*
X190114Y452776D01*
X191298Y450724D01*
X192974Y449048D01*
X195026Y447864D01*
X197315Y447250D01*
X199685D01*
X201974Y447864D01*
X204026Y449048D01*
X205702Y450724D01*
X206887Y452776D01*
X207500Y455065D01*
Y457435D01*
X206887Y459724D01*
X205702Y461776D01*
X204026Y463452D01*
X201974Y464637D01*
X199685Y465250D01*
D02*
G37*
G36*
X99685D02*
X97315D01*
X95026Y464637D01*
X92974Y463452D01*
X91298Y461776D01*
X90113Y459724D01*
X89500Y457435D01*
Y455065D01*
X90113Y452776D01*
X91298Y450724D01*
X92974Y449048D01*
X95026Y447864D01*
X97315Y447250D01*
X99685D01*
X101974Y447864D01*
X104026Y449048D01*
X105702Y450724D01*
X106887Y452776D01*
X107500Y455065D01*
Y457435D01*
X106887Y459724D01*
X105702Y461776D01*
X104026Y463452D01*
X101974Y464637D01*
X99685Y465250D01*
D02*
G37*
G36*
X230595Y443250D02*
X226606D01*
X222693Y442472D01*
X219008Y440945D01*
X215692Y438729D01*
X212871Y435909D01*
X210655Y432592D01*
X209128Y428907D01*
X208350Y424995D01*
Y421006D01*
X208549Y420005D01*
X207406Y419241D01*
X205961Y420207D01*
X203094Y421395D01*
X200051Y422000D01*
X196949D01*
X193906Y421395D01*
X191040Y420207D01*
X188460Y418484D01*
X186266Y416290D01*
X184543Y413710D01*
X183782Y411873D01*
X182407Y411873D01*
X181793Y413355D01*
X180151Y415812D01*
X178062Y417901D01*
X175605Y419543D01*
X172875Y420673D01*
X169977Y421250D01*
X167023D01*
X164125Y420673D01*
X161395Y419543D01*
X158938Y417901D01*
X156849Y415812D01*
X155492Y413782D01*
X154171Y413480D01*
X153902Y413523D01*
X151974Y414636D01*
X149685Y415250D01*
X147315D01*
X145026Y414636D01*
X143098Y413523D01*
X142829Y413480D01*
X141508Y413782D01*
X140152Y415812D01*
X138062Y417901D01*
X135605Y419543D01*
X132876Y420673D01*
X129978Y421250D01*
X127023D01*
X124125Y420673D01*
X121395Y419543D01*
X118938Y417901D01*
X116849Y415812D01*
X115207Y413355D01*
X114593Y411872D01*
X113219D01*
X112457Y413710D01*
X110734Y416290D01*
X108540Y418484D01*
X105960Y420207D01*
X103094Y421395D01*
X100051Y422000D01*
X96949D01*
X93906Y421395D01*
X91039Y420207D01*
X88460Y418484D01*
X86266Y416290D01*
X84542Y413710D01*
X83355Y410844D01*
X82750Y407801D01*
Y404698D01*
X83355Y401656D01*
X84542Y398789D01*
X86266Y396210D01*
X88460Y394016D01*
X91039Y392292D01*
X93906Y391105D01*
X96949Y390500D01*
X100051D01*
X103094Y391105D01*
X105960Y392292D01*
X108540Y394016D01*
X110734Y396210D01*
X112457Y398789D01*
X113219Y400627D01*
X114593D01*
X115207Y399145D01*
X116849Y396688D01*
X118938Y394599D01*
X121395Y392957D01*
X124125Y391826D01*
X127023Y391250D01*
X129978D01*
X132876Y391826D01*
X135605Y392957D01*
X138062Y394599D01*
X140152Y396688D01*
X141508Y398718D01*
X142829Y399019D01*
X143098Y398976D01*
X145026Y397863D01*
X147315Y397250D01*
X149685D01*
X151974Y397863D01*
X153902Y398976D01*
X154171Y399019D01*
X155492Y398718D01*
X156849Y396688D01*
X158938Y394599D01*
X161395Y392957D01*
X164125Y391826D01*
X167023Y391250D01*
X169977D01*
X172875Y391826D01*
X175605Y392957D01*
X178062Y394599D01*
X180151Y396688D01*
X181793Y399145D01*
X182407Y400627D01*
X183782Y400627D01*
X184543Y398789D01*
X186266Y396210D01*
X188460Y394016D01*
X191040Y392292D01*
X193906Y391105D01*
X196949Y390500D01*
X200051D01*
X203094Y391105D01*
X205961Y392292D01*
X208540Y394016D01*
X210734Y396210D01*
X212458Y398789D01*
X213645Y401656D01*
X214250Y404698D01*
Y406916D01*
X215520Y407442D01*
X215692Y407271D01*
X219008Y405055D01*
X222693Y403528D01*
X226606Y402750D01*
X230595D01*
X234507Y403528D01*
X238192Y405055D01*
X241509Y407271D01*
X244329Y410091D01*
X246546Y413408D01*
X248072Y417093D01*
X248850Y421006D01*
Y424995D01*
X248072Y428907D01*
X246546Y432592D01*
X244329Y435909D01*
X241509Y438729D01*
X238192Y440945D01*
X234507Y442472D01*
X230595Y443250D01*
D02*
G37*
G36*
X350995D02*
X347006D01*
X343093Y442472D01*
X339408Y440945D01*
X336092Y438729D01*
X333271Y435909D01*
X331055Y432592D01*
X329528Y428907D01*
X328750Y424995D01*
Y421006D01*
X329528Y417093D01*
X331055Y413408D01*
X333271Y410091D01*
X336092Y407271D01*
X339408Y405055D01*
X343093Y403528D01*
X347006Y402750D01*
X350995D01*
X354907Y403528D01*
X358592Y405055D01*
X361909Y407271D01*
X364729Y410091D01*
X366945Y413408D01*
X368472Y417093D01*
X369250Y421006D01*
Y424995D01*
X368472Y428907D01*
X366945Y432592D01*
X364729Y435909D01*
X361909Y438729D01*
X358592Y440945D01*
X354907Y442472D01*
X350995Y443250D01*
D02*
G37*
G36*
X104000Y155095D02*
X100000D01*
X97128Y154717D01*
X94452Y153608D01*
X92155Y151845D01*
X90391Y149547D01*
X89283Y146871D01*
X88905Y144000D01*
X89283Y141128D01*
X90391Y138452D01*
X92155Y136155D01*
X94452Y134391D01*
X97128Y133283D01*
X100000Y132905D01*
X104000D01*
X106872Y133283D01*
X109547Y134391D01*
X111845Y136155D01*
X113608Y138452D01*
X114717Y141128D01*
X115095Y144000D01*
X114717Y146871D01*
X113608Y149547D01*
X111845Y151845D01*
X109547Y153608D01*
X106872Y154717D01*
X104000Y155095D01*
D02*
G37*
G36*
Y129695D02*
X100000D01*
X97128Y129317D01*
X94452Y128208D01*
X92155Y126445D01*
X90391Y124147D01*
X89283Y121471D01*
X88905Y118600D01*
X89283Y115728D01*
X90391Y113052D01*
X92155Y110755D01*
X94452Y108991D01*
X97128Y107883D01*
X100000Y107505D01*
X104000D01*
X106872Y107883D01*
X109547Y108991D01*
X111845Y110755D01*
X113608Y113052D01*
X114717Y115728D01*
X115095Y118600D01*
X114717Y121471D01*
X113608Y124147D01*
X111845Y126445D01*
X109547Y128208D01*
X106872Y129317D01*
X104000Y129695D01*
D02*
G37*
G36*
Y104295D02*
X100000D01*
X97128Y103917D01*
X94452Y102808D01*
X92155Y101045D01*
X90391Y98747D01*
X89283Y96071D01*
X88905Y93200D01*
X89283Y90328D01*
X90391Y87652D01*
X92155Y85355D01*
X94452Y83591D01*
X97128Y82483D01*
X100000Y82105D01*
X104000D01*
X106872Y82483D01*
X109547Y83591D01*
X111845Y85355D01*
X113608Y87652D01*
X114717Y90328D01*
X115095Y93200D01*
X114717Y96071D01*
X113608Y98747D01*
X111845Y101045D01*
X109547Y102808D01*
X106872Y103917D01*
X104000Y104295D01*
D02*
G37*
G36*
X252000Y55345D02*
X248000D01*
X245128Y54967D01*
X242453Y53858D01*
X240155Y52095D01*
X238392Y49797D01*
X237283Y47122D01*
X236905Y44250D01*
X237283Y41378D01*
X238392Y38702D01*
X240155Y36405D01*
X242453Y34641D01*
X245128Y33533D01*
X248000Y33155D01*
X252000D01*
X254872Y33533D01*
X257548Y34641D01*
X259845Y36405D01*
X261609Y38702D01*
X262717Y41378D01*
X263095Y44250D01*
X262717Y47122D01*
X261609Y49797D01*
X259845Y52095D01*
X257548Y53858D01*
X254872Y54967D01*
X252000Y55345D01*
D02*
G37*
G36*
X180200Y53495D02*
X176200D01*
X173328Y53117D01*
X170653Y52008D01*
X168355Y50245D01*
X166591Y47947D01*
X165483Y45271D01*
X165105Y42400D01*
X165483Y39528D01*
X166591Y36852D01*
X168355Y34555D01*
X170653Y32791D01*
X173328Y31683D01*
X176200Y31305D01*
X180200D01*
X183071Y31683D01*
X185747Y32791D01*
X188045Y34555D01*
X189808Y36852D01*
X190917Y39528D01*
X191295Y42400D01*
X190917Y45271D01*
X189808Y47947D01*
X188045Y50245D01*
X185747Y52008D01*
X183071Y53117D01*
X180200Y53495D01*
D02*
G37*
G36*
X104000D02*
X100000D01*
X97128Y53117D01*
X94452Y52008D01*
X92155Y50245D01*
X90391Y47947D01*
X89283Y45271D01*
X88905Y42400D01*
X89283Y39528D01*
X90391Y36852D01*
X92155Y34555D01*
X94452Y32791D01*
X97128Y31683D01*
X100000Y31305D01*
X104000D01*
X106872Y31683D01*
X109547Y32791D01*
X111845Y34555D01*
X113608Y36852D01*
X114717Y39528D01*
X115095Y42400D01*
X114717Y45271D01*
X113608Y47947D01*
X111845Y50245D01*
X109547Y52008D01*
X106872Y53117D01*
X104000Y53495D01*
D02*
G37*
G36*
X180200Y28095D02*
X176200D01*
X173328Y27717D01*
X170653Y26608D01*
X168355Y24845D01*
X166591Y22547D01*
X165483Y19871D01*
X165105Y17000D01*
X165483Y14128D01*
X166591Y11452D01*
X168355Y9155D01*
X170653Y7391D01*
X173328Y6283D01*
X176200Y5905D01*
X180200D01*
X183071Y6283D01*
X185747Y7391D01*
X188045Y9155D01*
X189808Y11452D01*
X190917Y14128D01*
X191295Y17000D01*
X190917Y19871D01*
X189808Y22547D01*
X188045Y24845D01*
X185747Y26608D01*
X183071Y27717D01*
X180200Y28095D01*
D02*
G37*
G36*
X104000D02*
X100000D01*
X97128Y27717D01*
X94452Y26608D01*
X92155Y24845D01*
X90391Y22547D01*
X89283Y19871D01*
X88905Y17000D01*
X89283Y14128D01*
X90391Y11452D01*
X92155Y9155D01*
X94452Y7391D01*
X97128Y6283D01*
X100000Y5905D01*
X104000D01*
X106872Y6283D01*
X109547Y7391D01*
X111845Y9155D01*
X113608Y11452D01*
X114717Y14128D01*
X115095Y17000D01*
X114717Y19871D01*
X113608Y22547D01*
X111845Y24845D01*
X109547Y26608D01*
X106872Y27717D01*
X104000Y28095D01*
D02*
G37*
%LPD*%
D11*
X188714Y204970D02*
X219956D01*
X186174Y207510D02*
X188714Y204970D01*
X188372Y200000D02*
X217473D01*
X221000Y196473D01*
X70018Y155518D02*
X78478D01*
X92378Y169418D01*
X183189Y194818D02*
X188372Y200000D01*
X221000Y161632D02*
Y196473D01*
X152138Y194818D02*
X183189D01*
X34500Y207000D02*
X44659Y217159D01*
X47487D02*
X48252Y217924D01*
X44659Y217159D02*
X47487D01*
X32500Y207000D02*
X34500D01*
X178200Y169400D02*
X194302Y153298D01*
Y141216D02*
Y153298D01*
X183634Y232910D02*
X191910D01*
X204500Y242250D02*
X208000Y245750D01*
X201250Y242250D02*
X204500D01*
X191910Y232910D02*
X201250Y242250D01*
X168132Y436618D02*
X201618D01*
X219144Y454144D02*
X246118D01*
X201618Y436618D02*
X219144Y454144D01*
X279000Y298000D02*
Y340000D01*
X202000Y286000D02*
X267000D01*
X279000Y298000D01*
X195000Y53750D02*
X207500Y41250D01*
X195000Y86000D02*
X207250Y98250D01*
X195000Y53750D02*
Y86000D01*
X194000Y109000D02*
Y128200D01*
X201250Y101750D02*
X203750D01*
X207250Y98250D01*
X194000Y109000D02*
X201250Y101750D01*
X178200Y144000D02*
X194000Y128200D01*
X223276Y79250D02*
X232858Y69668D01*
X214876Y155018D02*
X221750Y148144D01*
Y79250D02*
X223276D01*
X207250D02*
X221750D01*
Y148144D01*
X190492Y259072D02*
X194564Y255000D01*
X243766Y252976D02*
X244848D01*
X241742Y255000D02*
X243766Y252976D01*
X194564Y255000D02*
X241742D01*
X102000Y245600D02*
X105400D01*
X143490Y207510D02*
X186174D01*
X105400Y245600D02*
X143490Y207510D01*
X219956Y203446D02*
X222496D01*
X214876Y155508D02*
X221000Y161632D01*
X222496Y203446D02*
X231894Y194048D01*
X148710Y183000D02*
X195000D01*
X204250Y192750D02*
X207000D01*
X200750Y189250D02*
X204250Y192750D01*
X200750Y188750D02*
Y189250D01*
X195000Y183000D02*
X200750Y188750D01*
X128000Y162290D02*
X148710Y183000D01*
X128000Y93800D02*
Y162290D01*
X102000Y67800D02*
X128000Y93800D01*
X73696Y159722D02*
X81000Y167026D01*
Y209510D01*
X73719Y216791D02*
X81000Y209510D01*
X97245Y194800D02*
X102000D01*
X86000Y206045D02*
X97245Y194800D01*
X86000Y206045D02*
Y222848D01*
X78224Y230624D02*
X86000Y222848D01*
X58000Y196746D02*
Y225000D01*
X63624Y230624D02*
X78224D01*
X58000Y225000D02*
X63624Y230624D01*
X58000Y196746D02*
X69588Y185158D01*
X54000Y161000D02*
X64000Y171000D01*
X54000Y131658D02*
Y161000D01*
X64000Y171000D02*
X66500D01*
X70000Y174500D01*
X54000Y131658D02*
X68826Y116832D01*
X73689Y89716D02*
X84000Y100026D01*
X73711Y151299D02*
X84000Y141010D01*
Y100026D02*
Y141010D01*
X40000Y40526D02*
X69074Y69600D01*
X69793Y82000D02*
X70000Y85500D01*
X69074Y69600D02*
X69793Y81941D01*
Y82000D01*
X40000Y40000D02*
Y40526D01*
X59518Y85518D02*
X67500D01*
X69982D01*
X36000Y128000D02*
X44638D01*
X45646Y126992D01*
X46728D01*
X32500Y131500D02*
X36000Y128000D01*
X15000Y130036D02*
Y177832D01*
Y130036D02*
X28522Y116514D01*
X15000Y177832D02*
X25186Y188018D01*
X206518Y155018D02*
X214876D01*
X126738Y169418D02*
X152138Y194818D01*
X36451Y108585D02*
Y109000D01*
X28522Y116000D02*
X32518Y112518D01*
X28522Y116000D02*
Y116514D01*
X73719Y216791D02*
Y217500D01*
X70000Y155500D02*
X73711Y152000D01*
X25186Y188018D02*
X32482D01*
X102018Y169418D02*
X126738D01*
X70000Y85500D02*
X73689Y89000D01*
X73711Y151299D02*
Y152000D01*
X32536Y112500D02*
X36451Y109000D01*
Y108585D02*
X59518Y85518D01*
X92378Y169418D02*
X101982D01*
X73689Y89000D02*
Y89716D01*
X70000Y221000D02*
X73719Y217500D01*
X73696Y159000D02*
Y159722D01*
X232858Y69668D02*
X249982D01*
X70000Y155500D02*
X73696Y159000D01*
X196000Y290000D02*
X200172Y285828D01*
X196000Y290000D02*
Y308500D01*
X205750Y318250D01*
X292560Y353560D02*
X324350D01*
X279000Y340000D02*
X292560Y353560D01*
X200172Y285828D02*
X201828D01*
X202000Y286000D01*
X348256Y279168D02*
X404588Y335500D01*
X214250Y268418D02*
X225000Y279168D01*
X348256D01*
X205750Y318250D02*
X208500D01*
X291584Y41648D02*
X302232Y31000D01*
X327000D02*
X352000Y56000D01*
X302232Y31000D02*
X327000D01*
X352000Y56000D02*
Y257000D01*
X379700Y284700D01*
X419500D01*
X214250Y268250D02*
Y268418D01*
X210750Y264750D02*
X214250Y268250D01*
X208000Y264750D02*
X210750D01*
X69588Y174500D02*
Y185158D01*
X68826Y104500D02*
Y116832D01*
X207000Y211750D02*
X237814D01*
X291584Y157980D01*
Y41648D02*
Y157980D01*
X178200Y220200D02*
X258320D01*
X299712Y178808D01*
Y48064D02*
Y178808D01*
Y48064D02*
X303776Y44000D01*
X317000D01*
X237736Y95050D02*
X250000D01*
X231894Y100892D02*
X237736Y95050D01*
X231894Y100892D02*
Y194048D01*
X102000Y271000D02*
X117076D01*
X152900Y306824D01*
X185920D01*
X190492Y302252D01*
Y259072D02*
Y302252D01*
X148500Y441952D02*
Y456250D01*
X143928Y437380D02*
X148500Y441952D01*
X52620Y437380D02*
X143928D01*
X40000Y450000D02*
X52620Y437380D01*
X199518Y136000D02*
X206500D01*
X194302Y141216D02*
X199518Y136000D01*
X276300Y395900D02*
Y423962D01*
X246118Y454144D02*
X276300Y423962D01*
X148500Y456250D02*
X168132Y436618D01*
X404588Y335500D02*
X419500D01*
X324350Y353560D02*
X357090Y386300D01*
X419500D01*
X164320Y347200D02*
X178200D01*
X125720Y308600D02*
X164320Y347200D01*
X21000Y308600D02*
X125720D01*
X149334Y321800D02*
X178200D01*
X110734Y283200D02*
X149334Y321800D01*
X21000Y283200D02*
X110734D01*
X68826Y104500D02*
X70000D01*
X368050Y360900D02*
X419500D01*
X343400Y336250D02*
X368050Y360900D01*
X292000Y336250D02*
X343400D01*
X369118Y40000D02*
X400000D01*
X347718Y18600D02*
X369118Y40000D01*
X317000Y18600D02*
X347718D01*
X283452D02*
X317000D01*
X283202Y18850D02*
X283452Y18600D01*
X250000Y18850D02*
X283202D01*
X230214D02*
X250000D01*
X226814Y22250D02*
X230214Y18850D01*
X207500Y22250D02*
X226814D01*
D14*
X70000Y155500D02*
D03*
Y174500D02*
D03*
Y221000D02*
D03*
Y240000D02*
D03*
X207250Y79250D02*
D03*
Y98250D02*
D03*
X207500Y22250D02*
D03*
Y41250D02*
D03*
X206500Y155000D02*
D03*
Y136000D02*
D03*
X70000Y85500D02*
D03*
Y104500D02*
D03*
X32500Y131500D02*
D03*
Y112500D02*
D03*
Y207000D02*
D03*
Y188000D02*
D03*
D31*
X292000Y336250D02*
D03*
Y260250D02*
D03*
D32*
X178200Y17000D02*
D03*
Y42400D02*
D03*
Y67800D02*
D03*
Y93200D02*
D03*
Y118600D02*
D03*
Y144000D02*
D03*
Y169400D02*
D03*
Y194800D02*
D03*
Y220200D02*
D03*
Y245600D02*
D03*
Y271000D02*
D03*
Y296400D02*
D03*
Y321800D02*
D03*
Y347200D02*
D03*
X102000Y17000D02*
D03*
Y42400D02*
D03*
Y67800D02*
D03*
Y93200D02*
D03*
Y118600D02*
D03*
Y144000D02*
D03*
Y169400D02*
D03*
Y194800D02*
D03*
Y220200D02*
D03*
Y245600D02*
D03*
Y271000D02*
D03*
Y296400D02*
D03*
Y321800D02*
D03*
X419500Y360900D02*
D03*
Y335500D02*
D03*
Y310100D02*
D03*
Y284700D02*
D03*
Y259300D02*
D03*
X250000Y120450D02*
D03*
Y95050D02*
D03*
Y69650D02*
D03*
Y44250D02*
D03*
Y18850D02*
D03*
X317000Y44000D02*
D03*
Y18600D02*
D03*
X21000Y283200D02*
D03*
Y308600D02*
D03*
Y334000D02*
D03*
D33*
X102000Y347200D02*
D03*
X419500Y386300D02*
D03*
X250000Y145850D02*
D03*
X317000Y69400D02*
D03*
X21000Y359400D02*
D03*
D34*
X349000Y423000D02*
D03*
X228600D02*
D03*
D35*
X276300Y395900D02*
D03*
X301300D02*
D03*
Y375900D02*
D03*
D36*
X276300D02*
D03*
D37*
X400000Y450000D02*
D03*
X40000Y40000D02*
D03*
X400000D02*
D03*
X40000Y450000D02*
D03*
D38*
X148500Y456250D02*
D03*
X98500Y406250D02*
D03*
X198500D02*
D03*
D39*
X128500D02*
D03*
X168500D02*
D03*
D40*
X198500Y481250D02*
D03*
Y456250D02*
D03*
X148500Y406250D02*
D03*
X98500Y481250D02*
D03*
Y456250D02*
D03*
X48252Y217924D02*
D03*
X183634Y232910D02*
D03*
X244848Y252976D02*
D03*
X219956Y204970D02*
D03*
X46728Y126992D02*
D03*
D41*
X208500Y299250D02*
D03*
Y318250D02*
D03*
X207000Y192750D02*
D03*
Y211750D02*
D03*
X208000Y245750D02*
D03*
Y264750D02*
D03*
D42*
X274400Y374000D02*
X276300Y375900D01*
X72000Y374000D02*
X274400D01*
X216750Y302750D02*
X276300Y362300D01*
Y375900D01*
X19572Y240000D02*
X70000D01*
D43*
X33399Y335399D02*
X72000Y374000D01*
X22399Y335399D02*
X33399D01*
X4000Y317000D02*
X22399Y335399D01*
X4000Y255572D02*
X19572Y240000D01*
X212000Y302750D02*
X216750D01*
X208500Y299250D02*
X212000Y302750D01*
X4000Y255572D02*
Y317000D01*
M02*
