G04*
G04 #@! TF.GenerationSoftware,Altium Limited,Altium Designer,23.4.1 (23)*
G04*
G04 Layer_Color=16711935*
%FSLAX44Y44*%
%MOMM*%
G71*
G04*
G04 #@! TF.SameCoordinates,86157EB8-D24E-458C-B92A-A00B084831C4*
G04*
G04*
G04 #@! TF.FilePolarity,Negative*
G04*
G01*
G75*
%ADD18R,1.4500X1.0500*%
%ADD21C,1.5580*%
%ADD22O,2.1500X1.7500*%
%ADD23R,2.1500X1.7500*%
%ADD24C,3.6000*%
%ADD25C,1.5810*%
%ADD26R,1.5810X1.5810*%
%ADD27C,7.5500*%
%ADD28C,2.7000*%
%ADD29C,2.5500*%
%ADD30C,0.7500*%
%ADD44R,1.6000X1.0500*%
D18*
X70000Y155500D02*
D03*
Y174500D02*
D03*
Y221000D02*
D03*
Y240000D02*
D03*
X207250Y79250D02*
D03*
Y98250D02*
D03*
X207500Y22250D02*
D03*
Y41250D02*
D03*
X206500Y155000D02*
D03*
Y136000D02*
D03*
X70000Y85500D02*
D03*
Y104500D02*
D03*
X32500Y131500D02*
D03*
Y112500D02*
D03*
Y207000D02*
D03*
Y188000D02*
D03*
D21*
X292000Y336250D02*
D03*
Y260250D02*
D03*
D22*
X178200Y17000D02*
D03*
Y42400D02*
D03*
Y67800D02*
D03*
Y93200D02*
D03*
Y118600D02*
D03*
Y144000D02*
D03*
Y169400D02*
D03*
Y194800D02*
D03*
Y220200D02*
D03*
Y245600D02*
D03*
Y271000D02*
D03*
Y296400D02*
D03*
Y321800D02*
D03*
Y347200D02*
D03*
X102000Y17000D02*
D03*
Y42400D02*
D03*
Y67800D02*
D03*
Y93200D02*
D03*
Y118600D02*
D03*
Y144000D02*
D03*
Y169400D02*
D03*
Y194800D02*
D03*
Y220200D02*
D03*
Y245600D02*
D03*
Y271000D02*
D03*
Y296400D02*
D03*
Y321800D02*
D03*
X419500Y360900D02*
D03*
Y335500D02*
D03*
Y310100D02*
D03*
Y284700D02*
D03*
Y259300D02*
D03*
X250000Y120450D02*
D03*
Y95050D02*
D03*
Y69650D02*
D03*
Y44250D02*
D03*
Y18850D02*
D03*
X317000Y44000D02*
D03*
Y18600D02*
D03*
X21000Y283200D02*
D03*
Y308600D02*
D03*
Y334000D02*
D03*
D23*
X102000Y347200D02*
D03*
X419500Y386300D02*
D03*
X250000Y145850D02*
D03*
X317000Y69400D02*
D03*
X21000Y359400D02*
D03*
D24*
X349000Y423000D02*
D03*
X228600D02*
D03*
D25*
X276300Y395900D02*
D03*
X301300D02*
D03*
Y375900D02*
D03*
D26*
X276300D02*
D03*
D27*
X400000Y450000D02*
D03*
X40000Y40000D02*
D03*
X400000D02*
D03*
X40000Y450000D02*
D03*
D28*
X148500Y456250D02*
D03*
X98500Y406250D02*
D03*
X198500D02*
D03*
D29*
X128500D02*
D03*
X168500D02*
D03*
D30*
X198500Y481250D02*
D03*
Y456250D02*
D03*
X148500Y406250D02*
D03*
X98500Y481250D02*
D03*
Y456250D02*
D03*
X48252Y217924D02*
D03*
X183634Y232910D02*
D03*
X244848Y252976D02*
D03*
X219956Y204970D02*
D03*
X46728Y126992D02*
D03*
D44*
X208500Y299250D02*
D03*
Y318250D02*
D03*
X207000Y192750D02*
D03*
Y211750D02*
D03*
X208000Y245750D02*
D03*
Y264750D02*
D03*
M02*
