G04*
G04 #@! TF.GenerationSoftware,Altium Limited,Altium Designer,23.4.1 (23)*
G04*
G04 Layer_Physical_Order=1*
G04 Layer_Color=255*
%FSLAX44Y44*%
%MOMM*%
G71*
G04*
G04 #@! TF.SameCoordinates,2D18AEB5-ACAA-45E6-9F21-B50C343496A2*
G04*
G04*
G04 #@! TF.FilePolarity,Positive*
G04*
G01*
G75*
%ADD11C,0.2000*%
%ADD13R,1.4500X1.2000*%
%ADD14R,1.3000X0.9000*%
%ADD15R,0.9000X1.3000*%
%ADD16R,2.1000X5.6000*%
%ADD31C,1.4080*%
%ADD32O,2.0000X1.6000*%
%ADD33R,2.0000X1.6000*%
%ADD34C,3.4500*%
%ADD35C,1.4310*%
%ADD36R,1.4310X1.4310*%
%ADD37C,7.4000*%
%ADD38C,2.5500*%
%ADD39C,2.4000*%
%ADD40C,0.6000*%
G36*
X344501Y485827D02*
X262837Y404163D01*
X262174Y403171D01*
X261941Y402000D01*
X261941Y402000D01*
Y389000D01*
X262174Y387830D01*
X262837Y386837D01*
X262837Y386837D01*
X265782Y383892D01*
X266775Y383229D01*
X267945Y382996D01*
X267945Y382996D01*
X283396D01*
Y367248D01*
X283174Y366915D01*
X282941Y365745D01*
Y354267D01*
X272837Y344163D01*
X272174Y343171D01*
X271941Y342000D01*
X271941Y342000D01*
Y330000D01*
X271941Y330000D01*
X272174Y328829D01*
X272837Y327837D01*
X289000Y311674D01*
Y269840D01*
X288125Y269606D01*
X285835Y268284D01*
X283966Y266415D01*
X282644Y264125D01*
X281960Y261572D01*
Y258928D01*
X282644Y256375D01*
X283966Y254085D01*
X285835Y252216D01*
X288125Y250894D01*
X290678Y250210D01*
X293322D01*
X295649Y250834D01*
X337922Y208561D01*
Y58000D01*
X295059D01*
Y100000D01*
X294826Y101171D01*
X294163Y102163D01*
X273163Y123163D01*
X272171Y123826D01*
X271000Y124059D01*
X271000Y124059D01*
X262412D01*
X261609Y125997D01*
X259845Y128295D01*
X257548Y130058D01*
X254872Y131167D01*
X252000Y131545D01*
X248000D01*
X245128Y131167D01*
X242453Y130058D01*
X240155Y128295D01*
X238392Y125997D01*
X237283Y123322D01*
X237049Y121541D01*
X236941Y121000D01*
Y120724D01*
X236905Y120450D01*
X236941Y120176D01*
Y106000D01*
X237174Y104830D01*
X237837Y103837D01*
X238789Y103201D01*
X238833Y103165D01*
X239303Y101785D01*
X238392Y100597D01*
X237283Y97921D01*
X236905Y95050D01*
X237038Y94038D01*
X223864Y80864D01*
X219824Y84904D01*
X218501Y85788D01*
X216940Y86098D01*
X216940Y86098D01*
X202709D01*
X199078Y89729D01*
Y125060D01*
X202518Y128500D01*
X215750D01*
Y141772D01*
X237000D01*
Y134850D01*
X263000D01*
Y156850D01*
X237000D01*
Y149928D01*
X202839D01*
X199078Y153689D01*
Y186250D01*
X215250D01*
Y195482D01*
X218745Y198977D01*
X218762Y198970D01*
X221150D01*
X223355Y199883D01*
X225043Y201571D01*
X225956Y203776D01*
Y206164D01*
X225043Y208369D01*
X223355Y210057D01*
X221150Y210970D01*
X218762D01*
X216557Y210057D01*
X214869Y208369D01*
X213956Y206164D01*
Y205724D01*
X209482Y201250D01*
X199078D01*
Y238561D01*
X204017Y243500D01*
X215250D01*
Y246922D01*
X242872D01*
X242872Y246922D01*
X243489Y247044D01*
X243654Y246976D01*
X246042D01*
X248247Y247889D01*
X249935Y249577D01*
X250848Y251782D01*
Y254170D01*
X249935Y256375D01*
X248247Y258063D01*
X246042Y258976D01*
X243654D01*
X241449Y258063D01*
X239761Y256375D01*
X239224Y255078D01*
X215250D01*
Y258500D01*
X200159D01*
X199673Y259673D01*
X200000Y260000D01*
X197000Y263000D01*
Y280232D01*
X201384Y284616D01*
X201384Y284616D01*
X202268Y285939D01*
X202579Y287500D01*
Y391003D01*
X203094Y391105D01*
X205961Y392292D01*
X208540Y394016D01*
X210734Y396210D01*
X212458Y398789D01*
X213645Y401656D01*
X214250Y404698D01*
Y406916D01*
X215520Y407442D01*
X215692Y407271D01*
X219008Y405055D01*
X222693Y403528D01*
X226606Y402750D01*
X230595D01*
X234507Y403528D01*
X238192Y405055D01*
X241509Y407271D01*
X244329Y410091D01*
X246546Y413408D01*
X248072Y417093D01*
X248850Y421006D01*
Y424995D01*
X248072Y428907D01*
X246546Y432592D01*
X244329Y435909D01*
X241509Y438729D01*
X238192Y440945D01*
X234507Y442472D01*
X230595Y443250D01*
X226606D01*
X222693Y442472D01*
X219008Y440945D01*
X215692Y438729D01*
X212871Y435909D01*
X210655Y432592D01*
X209128Y428907D01*
X208350Y424995D01*
Y421006D01*
X208549Y420005D01*
X207406Y419241D01*
X205961Y420207D01*
X203094Y421395D01*
X200051Y422000D01*
X196949D01*
X193906Y421395D01*
X191040Y420207D01*
X188460Y418484D01*
X186266Y416290D01*
X184543Y413710D01*
X183782Y411873D01*
X182407Y411873D01*
X181793Y413355D01*
X180151Y415812D01*
X178062Y417901D01*
X175605Y419543D01*
X172875Y420673D01*
X169977Y421250D01*
X167023D01*
X164125Y420673D01*
X161395Y419543D01*
X158938Y417901D01*
X156849Y415812D01*
X155492Y413782D01*
X154171Y413480D01*
X153902Y413523D01*
X151974Y414636D01*
X149685Y415250D01*
X147315D01*
X145026Y414636D01*
X143098Y413523D01*
X142829Y413480D01*
X141508Y413782D01*
X140152Y415812D01*
X138062Y417901D01*
X135605Y419543D01*
X132876Y420673D01*
X129978Y421250D01*
X127023D01*
X124125Y420673D01*
X121395Y419543D01*
X118938Y417901D01*
X116849Y415812D01*
X115207Y413355D01*
X114593Y411872D01*
X113219D01*
X112457Y413710D01*
X110734Y416290D01*
X108540Y418484D01*
X105960Y420207D01*
X103094Y421395D01*
X100051Y422000D01*
X96949D01*
X93906Y421395D01*
X91039Y420207D01*
X88460Y418484D01*
X86266Y416290D01*
X84542Y413710D01*
X83355Y410844D01*
X82750Y407801D01*
Y404698D01*
X83355Y401656D01*
X84542Y398789D01*
X86266Y396210D01*
X88460Y394016D01*
X91039Y392292D01*
X93906Y391105D01*
X96949Y390500D01*
X100051D01*
X103094Y391105D01*
X105960Y392292D01*
X106397Y392584D01*
X110000Y388982D01*
Y358200D01*
X89000D01*
Y341596D01*
X82846Y335442D01*
X81962Y334119D01*
X81652Y332558D01*
X81652Y332558D01*
Y218483D01*
X78668Y215500D01*
X60750D01*
Y200500D01*
X69000D01*
Y186010D01*
X67616Y184625D01*
X66732Y183302D01*
X66421Y181742D01*
X66421Y181742D01*
Y168750D01*
X60250D01*
Y150750D01*
X80750D01*
X81000Y149584D01*
Y114454D01*
X77546Y111000D01*
X59750D01*
X59750Y111000D01*
Y111000D01*
X58839Y111759D01*
X56140Y114457D01*
Y135938D01*
X56140Y135938D01*
X55830Y137499D01*
X54946Y138822D01*
X34578Y159189D01*
Y177750D01*
X44000D01*
Y212031D01*
X45270Y212665D01*
X47059Y211924D01*
X49446D01*
X51651Y212837D01*
X53339Y214525D01*
X54252Y216730D01*
Y219118D01*
X53339Y221323D01*
X51651Y223011D01*
X49446Y223924D01*
X47059D01*
X45270Y223183D01*
X44000Y223817D01*
Y239750D01*
X19059D01*
Y269118D01*
X19059Y269118D01*
X18826Y270288D01*
X18417Y270901D01*
X18931Y271963D01*
X19091Y272105D01*
X23000D01*
X25871Y272483D01*
X28547Y273591D01*
X30845Y275355D01*
X32608Y277652D01*
X33717Y280328D01*
X34095Y283200D01*
X33717Y286071D01*
X32608Y288747D01*
X32471Y288927D01*
X33000Y290000D01*
X33000D01*
Y301000D01*
X32469D01*
X31907Y302139D01*
X32608Y303053D01*
X33717Y305728D01*
X34095Y308600D01*
X33717Y311472D01*
X32608Y314147D01*
X30845Y316445D01*
X28547Y318208D01*
X25871Y319317D01*
X23000Y319695D01*
X19000D01*
X16128Y319317D01*
X13452Y318208D01*
X12329Y317346D01*
X11059Y317973D01*
Y333278D01*
X11019Y333475D01*
X11033Y333677D01*
X10990Y334000D01*
X11033Y334323D01*
X11019Y334524D01*
X11059Y334722D01*
Y342733D01*
X16267Y347941D01*
X28000D01*
X28000Y347941D01*
X29171Y348174D01*
X29509Y348400D01*
X34000D01*
Y352674D01*
X45163Y363837D01*
X45826Y364829D01*
X46059Y366000D01*
X46059Y366000D01*
Y403941D01*
X64000D01*
X65170Y404174D01*
X66163Y404837D01*
X66163Y404837D01*
X99267Y437941D01*
X168000D01*
X169170Y438174D01*
X170163Y438837D01*
X170826Y439829D01*
X171059Y441000D01*
Y468000D01*
X171059Y468000D01*
X170826Y469170D01*
X170163Y470163D01*
X170163Y470163D01*
X154499Y485827D01*
X154985Y487000D01*
X189961D01*
X190694Y485730D01*
X190114Y484724D01*
X189500Y482435D01*
Y480065D01*
X190114Y477776D01*
X191298Y475724D01*
X192974Y474048D01*
X195026Y472863D01*
X197315Y472250D01*
X199685D01*
X201974Y472863D01*
X204026Y474048D01*
X205702Y475724D01*
X206887Y477776D01*
X207500Y480065D01*
Y482435D01*
X206887Y484724D01*
X206306Y485730D01*
X207039Y487000D01*
X344015D01*
X344501Y485827D01*
D02*
G37*
G36*
X168000Y468000D02*
Y441000D01*
X98000D01*
X64000Y407000D01*
X43000D01*
Y366000D01*
X28000Y351000D01*
X15000D01*
X8000Y344000D01*
Y334722D01*
X7905Y334000D01*
X8000Y333278D01*
Y309322D01*
X7905Y308600D01*
X8000Y307878D01*
Y283922D01*
X7905Y283200D01*
X8000Y282478D01*
Y277118D01*
X16000Y269118D01*
Y83000D01*
X21000Y78000D01*
X58000D01*
X80000Y56000D01*
Y9000D01*
X84000Y5000D01*
X212101D01*
X212789Y4206D01*
X212373Y3000D01*
X3000D01*
Y487000D01*
X89961D01*
X90694Y485730D01*
X90113Y484724D01*
X89500Y482435D01*
Y480065D01*
X90113Y477776D01*
X91298Y475724D01*
X92974Y474048D01*
X95026Y472863D01*
X97315Y472250D01*
X99685D01*
X101974Y472863D01*
X104026Y474048D01*
X105702Y475724D01*
X106887Y477776D01*
X107500Y480065D01*
Y482435D01*
X106887Y484724D01*
X106306Y485730D01*
X107039Y487000D01*
X149000D01*
X168000Y468000D01*
D02*
G37*
G36*
X292000Y100000D02*
Y58000D01*
X268000D01*
Y14000D01*
X243000D01*
Y31000D01*
X259000D01*
X266000Y38000D01*
Y51000D01*
X259000Y58000D01*
X250000D01*
Y81000D01*
X263000D01*
Y94328D01*
X263095Y95050D01*
X263000Y95772D01*
Y106000D01*
X253101D01*
X252000Y106145D01*
X248000D01*
X246900Y106000D01*
X240000D01*
Y121000D01*
X271000D01*
X292000Y100000D01*
D02*
G37*
G36*
X437000Y3000D02*
X283627D01*
X283211Y4206D01*
X283899Y5000D01*
X287000D01*
X293000Y11000D01*
X365000D01*
X366000Y12000D01*
Y58000D01*
X387000Y79000D01*
Y88000D01*
X390000Y91000D01*
Y215000D01*
X390000D01*
X275000Y330000D01*
Y342000D01*
X286000Y353000D01*
Y365745D01*
X286455D01*
Y386055D01*
X267945D01*
X265000Y389000D01*
Y402000D01*
X350000Y487000D01*
X437000D01*
Y3000D01*
D02*
G37*
%LPC*%
G36*
X199685Y465250D02*
X197315D01*
X195026Y464637D01*
X192974Y463452D01*
X191298Y461776D01*
X190114Y459724D01*
X189500Y457435D01*
Y455065D01*
X190114Y452776D01*
X191298Y450724D01*
X192974Y449048D01*
X195026Y447864D01*
X197315Y447250D01*
X199685D01*
X201974Y447864D01*
X204026Y449048D01*
X205702Y450724D01*
X206887Y452776D01*
X207500Y455065D01*
Y457435D01*
X206887Y459724D01*
X205702Y461776D01*
X204026Y463452D01*
X201974Y464637D01*
X199685Y465250D01*
D02*
G37*
G36*
X99685D02*
X97315D01*
X95026Y464637D01*
X92974Y463452D01*
X91298Y461776D01*
X90113Y459724D01*
X89500Y457435D01*
Y455065D01*
X90113Y452776D01*
X91298Y450724D01*
X92974Y449048D01*
X95026Y447864D01*
X97315Y447250D01*
X99685D01*
X101974Y447864D01*
X104026Y449048D01*
X105702Y450724D01*
X106887Y452776D01*
X107500Y455065D01*
Y457435D01*
X106887Y459724D01*
X105702Y461776D01*
X104026Y463452D01*
X101974Y464637D01*
X99685Y465250D01*
D02*
G37*
G36*
X350995Y443250D02*
X347006D01*
X343093Y442472D01*
X339408Y440945D01*
X336092Y438729D01*
X333271Y435909D01*
X331055Y432592D01*
X329528Y428907D01*
X328750Y424995D01*
Y421006D01*
X329528Y417093D01*
X331055Y413408D01*
X333271Y410091D01*
X336092Y407271D01*
X339408Y405055D01*
X343093Y403528D01*
X347006Y402750D01*
X350995D01*
X354907Y403528D01*
X358592Y405055D01*
X361909Y407271D01*
X364729Y410091D01*
X366945Y413408D01*
X368472Y417093D01*
X369250Y421006D01*
Y424995D01*
X368472Y428907D01*
X366945Y432592D01*
X364729Y435909D01*
X361909Y438729D01*
X358592Y440945D01*
X354907Y442472D01*
X350995Y443250D01*
D02*
G37*
G36*
X432500Y397300D02*
X406500D01*
Y375300D01*
X432500D01*
Y397300D01*
D02*
G37*
G36*
X302637Y406055D02*
X299963D01*
X297380Y405363D01*
X295065Y404026D01*
X293174Y402135D01*
X291837Y399819D01*
X291145Y397237D01*
Y394563D01*
X291837Y391980D01*
X293174Y389664D01*
X295065Y387774D01*
X297096Y386601D01*
X297226Y386034D01*
Y385766D01*
X297096Y385198D01*
X295065Y384026D01*
X293174Y382135D01*
X291837Y379819D01*
X291145Y377237D01*
Y374563D01*
X291837Y371980D01*
X293174Y369664D01*
X295065Y367774D01*
X297380Y366437D01*
X299963Y365745D01*
X302637D01*
X305220Y366437D01*
X307535Y367774D01*
X309426Y369664D01*
X310763Y371980D01*
X311455Y374563D01*
Y377237D01*
X310763Y379819D01*
X309426Y382135D01*
X307535Y384026D01*
X305504Y385198D01*
X305374Y385766D01*
Y386034D01*
X305504Y386601D01*
X307535Y387774D01*
X309426Y389664D01*
X310763Y391980D01*
X311455Y394563D01*
Y397237D01*
X310763Y399819D01*
X309426Y402135D01*
X307535Y404026D01*
X305220Y405363D01*
X302637Y406055D01*
D02*
G37*
G36*
X421500Y346595D02*
X417500D01*
X414628Y346217D01*
X411953Y345109D01*
X409655Y343345D01*
X407891Y341048D01*
X406783Y338372D01*
X406405Y335500D01*
X406783Y332629D01*
X407891Y329953D01*
X409655Y327655D01*
X411953Y325892D01*
X414628Y324783D01*
X417500Y324405D01*
X421500D01*
X424371Y324783D01*
X427047Y325892D01*
X429345Y327655D01*
X431108Y329953D01*
X432217Y332629D01*
X432595Y335500D01*
X432217Y338372D01*
X431108Y341048D01*
X429345Y343345D01*
X427047Y345109D01*
X424371Y346217D01*
X421500Y346595D01*
D02*
G37*
G36*
Y295795D02*
X417500D01*
X414628Y295417D01*
X411953Y294309D01*
X409655Y292545D01*
X407891Y290248D01*
X406783Y287572D01*
X406405Y284700D01*
X406783Y281828D01*
X407891Y279153D01*
X409655Y276855D01*
X411953Y275092D01*
X414628Y273983D01*
X417500Y273605D01*
X421500D01*
X424371Y273983D01*
X427047Y275092D01*
X429345Y276855D01*
X431108Y279153D01*
X432217Y281828D01*
X432595Y284700D01*
X432217Y287572D01*
X431108Y290248D01*
X429345Y292545D01*
X427047Y294309D01*
X424371Y295417D01*
X421500Y295795D01*
D02*
G37*
%LPD*%
D11*
X76000Y4000D02*
X304000D01*
X40000Y40000D02*
X76000Y4000D01*
X304000D02*
X317000Y17000D01*
X207500Y15500D02*
X215730Y7270D01*
X280270D01*
X304000Y31000D01*
X30500Y217924D02*
X48252D01*
X30500Y208750D02*
Y217924D01*
Y157500D02*
Y208750D01*
X52062Y112768D02*
Y135938D01*
X30500Y157500D02*
X52062Y135938D01*
X30500Y113750D02*
Y126992D01*
Y96500D02*
Y113750D01*
Y126992D02*
X46728D01*
X250000Y69650D02*
X272000Y47650D01*
X250000Y18850D02*
X272000Y40850D01*
Y47650D01*
X178200Y42400D02*
X193400D01*
X205500Y54500D01*
X207500D01*
X5000Y353740D02*
X10660Y359400D01*
X5000Y75000D02*
X40000Y40000D01*
X5000Y75000D02*
Y353740D01*
X406000Y272800D02*
X419500Y259300D01*
X406000Y296600D02*
X419500Y310100D01*
X406000Y272800D02*
Y296600D01*
X434000Y324600D02*
Y346400D01*
X419500Y310100D02*
X434000Y324600D01*
X419500Y360900D02*
X434000Y346400D01*
X40000Y450000D02*
X58569D01*
X77569Y469000D01*
X135750D02*
X148500Y456250D01*
X77569Y469000D02*
X135750D01*
X400000Y366276D02*
Y450000D01*
Y40000D02*
Y366276D01*
X317000Y17000D02*
Y18600D01*
X205750Y193750D02*
X207750D01*
X218970Y204970D01*
X219956D01*
X108575Y209000D02*
X123436Y194139D01*
X89000Y215022D02*
X95022Y209000D01*
X108575D01*
X89000Y225906D02*
X96004Y232910D01*
X89000Y215022D02*
Y225906D01*
X76936Y208000D02*
X85730Y216794D01*
Y332558D01*
X93871Y340700D01*
X100371Y347200D01*
X102000D01*
X178200Y271000D02*
X182000D01*
X198500Y287500D02*
Y406250D01*
X182000Y271000D02*
X198500Y287500D01*
X98500Y406250D02*
X118000Y386750D01*
Y284574D02*
X156974Y245600D01*
X118000Y284574D02*
Y386750D01*
X66750Y87000D02*
X69250Y84500D01*
X40000Y87000D02*
X66750D01*
X30500Y96500D02*
X40000Y87000D01*
X191730Y82270D02*
Y125270D01*
X208172Y74328D02*
X208750Y73750D01*
X191730Y82270D02*
X199672Y74328D01*
X208172D01*
X195000Y88040D02*
X201020Y82020D01*
X195000Y88040D02*
Y126750D01*
X201020Y82020D02*
X216940D01*
X187444Y129556D02*
Y144000D01*
Y129556D02*
X191730Y125270D01*
X195000Y126750D02*
X204250Y136000D01*
X104000Y220200D02*
X168200Y156000D01*
X184250D02*
X204250Y136000D01*
X168200Y156000D02*
X184250D01*
X102000Y220200D02*
X104000D01*
X204250Y136000D02*
X206250D01*
X123436Y103868D02*
Y194139D01*
X216940Y82020D02*
X231131Y67829D01*
Y61119D02*
Y67829D01*
X248000Y44250D02*
X250000D01*
X231131Y61119D02*
X248000Y44250D01*
X207500Y15500D02*
Y35500D01*
X337000Y31000D02*
X342000Y36000D01*
X304000Y31000D02*
X337000D01*
X292000Y260250D02*
X342000Y210250D01*
Y36000D02*
Y210250D01*
X195000Y152000D02*
X201150Y145850D01*
X250000D01*
X195000Y152000D02*
Y240250D01*
X205750Y251000D01*
X205986D01*
X242872D01*
X100068Y113964D02*
Y118600D01*
X96004Y232910D02*
X183634D01*
X112768Y93200D02*
X123436Y103868D01*
X102000Y93200D02*
X112768D01*
X37500Y375900D02*
Y393000D01*
X21000Y359400D02*
X37500Y375900D01*
X10660Y359400D02*
X21000D01*
X242872Y251000D02*
X244848Y252976D01*
X61330Y103500D02*
X69250D01*
X52062Y112768D02*
X61330Y103500D01*
X178200Y144000D02*
X187444D01*
X70500Y159750D02*
Y181742D01*
X83558Y194800D01*
X102000D01*
X100068Y118600D02*
X102000D01*
X70604Y84500D02*
X100068Y113964D01*
X69250Y84500D02*
X70604D01*
X91930Y144000D02*
X102000D01*
X85082Y137152D02*
X91930Y144000D01*
X85082Y112768D02*
Y137152D01*
X75814Y103500D02*
X85082Y112768D01*
X69250Y103500D02*
X75814D01*
X156974Y245600D02*
X178200D01*
X70250Y208000D02*
X76936D01*
X400000Y366276D02*
X405376Y360900D01*
X419500D01*
X250000Y69650D02*
X265540Y85190D01*
Y104910D01*
X250000Y120450D02*
X265540Y104910D01*
X40000Y422608D02*
Y450000D01*
X37500Y420108D02*
X40000Y422608D01*
X37500Y393000D02*
Y420108D01*
D13*
X208750Y90750D02*
D03*
Y73750D02*
D03*
X70500Y142750D02*
D03*
Y159750D02*
D03*
D14*
X205750Y270000D02*
D03*
Y251000D02*
D03*
Y212750D02*
D03*
Y193750D02*
D03*
X206250Y155000D02*
D03*
Y136000D02*
D03*
X207500Y54500D02*
D03*
Y35500D02*
D03*
X70250Y227000D02*
D03*
Y208000D02*
D03*
X69250Y103500D02*
D03*
Y84500D02*
D03*
D15*
X37500Y393000D02*
D03*
X56500D02*
D03*
D16*
X30500Y208750D02*
D03*
Y113750D02*
D03*
D31*
X292000Y336250D02*
D03*
Y260250D02*
D03*
D32*
X178200Y17000D02*
D03*
Y42400D02*
D03*
Y67800D02*
D03*
Y93200D02*
D03*
Y118600D02*
D03*
Y144000D02*
D03*
Y169400D02*
D03*
Y194800D02*
D03*
Y220200D02*
D03*
Y245600D02*
D03*
Y271000D02*
D03*
Y296400D02*
D03*
Y321800D02*
D03*
Y347200D02*
D03*
X102000Y17000D02*
D03*
Y42400D02*
D03*
Y67800D02*
D03*
Y93200D02*
D03*
Y118600D02*
D03*
Y144000D02*
D03*
Y169400D02*
D03*
Y194800D02*
D03*
Y220200D02*
D03*
Y245600D02*
D03*
Y271000D02*
D03*
Y296400D02*
D03*
Y321800D02*
D03*
X419500Y360900D02*
D03*
Y335500D02*
D03*
Y310100D02*
D03*
Y284700D02*
D03*
Y259300D02*
D03*
X250000Y120450D02*
D03*
Y95050D02*
D03*
Y69650D02*
D03*
Y44250D02*
D03*
Y18850D02*
D03*
X317000Y44000D02*
D03*
Y18600D02*
D03*
X21000Y283200D02*
D03*
Y308600D02*
D03*
Y334000D02*
D03*
D33*
X102000Y347200D02*
D03*
X419500Y386300D02*
D03*
X250000Y145850D02*
D03*
X317000Y69400D02*
D03*
X21000Y359400D02*
D03*
D34*
X349000Y423000D02*
D03*
X228600D02*
D03*
D35*
X276300Y395900D02*
D03*
X301300D02*
D03*
Y375900D02*
D03*
D36*
X276300D02*
D03*
D37*
X400000Y450000D02*
D03*
X40000Y40000D02*
D03*
X400000D02*
D03*
X40000Y450000D02*
D03*
D38*
X148500Y456250D02*
D03*
X98500Y406250D02*
D03*
X198500D02*
D03*
D39*
X128500D02*
D03*
X168500D02*
D03*
D40*
X198500Y481250D02*
D03*
Y456250D02*
D03*
X148500Y406250D02*
D03*
X98500Y481250D02*
D03*
Y456250D02*
D03*
X48252Y217924D02*
D03*
X183634Y232910D02*
D03*
X244848Y252976D02*
D03*
X219956Y204970D02*
D03*
X46728Y126992D02*
D03*
M02*
