G04*
G04 #@! TF.GenerationSoftware,Altium Limited,Altium Designer,23.4.1 (23)*
G04*
G04 Layer_Color=8388736*
%FSLAX25Y25*%
%MOIN*%
G70*
G04*
G04 #@! TF.SameCoordinates,EF30BACE-0BBC-42E6-AA2A-B86B67AF279B*
G04*
G04*
G04 #@! TF.FilePolarity,Negative*
G04*
G01*
G75*
%ADD13R,0.06299X0.05315*%
%ADD14R,0.05709X0.04134*%
%ADD15R,0.04134X0.05709*%
%ADD16R,0.08858X0.22638*%
%ADD17C,0.14173*%
%ADD18C,0.06134*%
%ADD19O,0.08465X0.06890*%
%ADD20R,0.08465X0.06890*%
%ADD21C,0.06224*%
%ADD22R,0.06224X0.06224*%
%ADD23C,0.29724*%
%ADD24C,0.10630*%
%ADD25C,0.10039*%
%ADD26C,0.02953*%
D13*
X82185Y35728D02*
D03*
Y29035D02*
D03*
X27756Y56201D02*
D03*
Y62894D02*
D03*
D14*
X81004Y106299D02*
D03*
Y98819D02*
D03*
Y83760D02*
D03*
Y76279D02*
D03*
X81201Y61024D02*
D03*
Y53543D02*
D03*
X81693Y21457D02*
D03*
Y13976D02*
D03*
X27657Y89370D02*
D03*
Y81890D02*
D03*
X27264Y40748D02*
D03*
Y33268D02*
D03*
D15*
X14764Y154725D02*
D03*
X22244D02*
D03*
D16*
X12008Y82185D02*
D03*
Y44783D02*
D03*
D17*
X137402Y166535D02*
D03*
X90000D02*
D03*
D18*
X114961Y132382D02*
D03*
Y102461D02*
D03*
D19*
X70157Y6693D02*
D03*
Y16693D02*
D03*
Y26693D02*
D03*
Y36693D02*
D03*
Y46693D02*
D03*
Y56693D02*
D03*
Y66693D02*
D03*
Y76693D02*
D03*
Y86693D02*
D03*
Y96693D02*
D03*
Y106693D02*
D03*
Y116693D02*
D03*
Y126693D02*
D03*
Y136693D02*
D03*
X40157Y6693D02*
D03*
Y16693D02*
D03*
Y26693D02*
D03*
Y36693D02*
D03*
Y46693D02*
D03*
Y56693D02*
D03*
Y66693D02*
D03*
Y76693D02*
D03*
Y86693D02*
D03*
Y96693D02*
D03*
Y106693D02*
D03*
Y116693D02*
D03*
Y126693D02*
D03*
X165157Y142087D02*
D03*
Y132087D02*
D03*
Y122087D02*
D03*
Y112087D02*
D03*
Y102087D02*
D03*
X98425Y47421D02*
D03*
Y37421D02*
D03*
Y27421D02*
D03*
Y17421D02*
D03*
Y7421D02*
D03*
X124803Y17323D02*
D03*
Y7323D02*
D03*
X8268Y111496D02*
D03*
Y121496D02*
D03*
Y131496D02*
D03*
D20*
X40157Y136693D02*
D03*
X165157Y152087D02*
D03*
X98425Y57421D02*
D03*
X124803Y27323D02*
D03*
X8268Y141496D02*
D03*
D21*
X108779Y155866D02*
D03*
X118622D02*
D03*
Y147992D02*
D03*
D22*
X108779D02*
D03*
D23*
X157480Y177165D02*
D03*
X15748Y15748D02*
D03*
X157480D02*
D03*
X15748Y177165D02*
D03*
D24*
X58465Y179626D02*
D03*
X38780Y159941D02*
D03*
X78150D02*
D03*
D25*
X50591D02*
D03*
X66339D02*
D03*
D26*
X78150Y189469D02*
D03*
Y179626D02*
D03*
X58465Y159941D02*
D03*
X38780Y189469D02*
D03*
Y179626D02*
D03*
X18997Y85797D02*
D03*
X72297Y91697D02*
D03*
X96397Y99597D02*
D03*
X86597Y80697D02*
D03*
X18397Y49997D02*
D03*
M02*
