M48
;Layer_Color=9474304
;FILE_FORMAT=2:4
INCH,TZ
;TYPE=PLATED
T1F00S00C0.0118
T2F00S00C0.0354
T3F00S00C0.0362
T4F00S00C0.0433
T5F00S00C0.0669
T6F00S00C0.0906
T7F00S00C0.1260
;TYPE=NON_PLATED
T8F00S00C0.0472
%
T01
X1840Y5000
X1900Y8580
X7230Y9170
X8660Y8070
X9640Y9960
T02
X11496Y10246
Y13238
T03
X10878Y14799
Y15587
X11862
Y14799
T04
X4016Y669
Y1669
Y2669
Y3669
Y4669
Y5669
Y6669
Y7669
Y8669
Y9669
Y10669
Y11669
Y12669
Y13669
X7016
Y12669
Y11669
Y10669
Y9669
Y8669
Y7669
Y6669
Y5669
Y4669
Y3669
Y2669
Y1669
Y669
X9843Y742
Y1742
Y2742
Y3742
Y4742
Y5742
X12480Y2732
Y1732
Y732
X827Y11150
Y12150
Y13150
Y14150
X16516Y14209
Y13209
Y12209
Y11209
Y10209
Y15209
T05
X3878Y15994
X5059
X6634
X7815
X5846Y17963
T06
X9000Y16654
X13740
T07
X1575Y1575
X15748
Y17717
X1575
T08
X5846Y15994
X7815Y17963
Y18947
X3878
Y17963
M30
