G04*
G04 #@! TF.GenerationSoftware,Altium Limited,Altium Designer,23.4.1 (23)*
G04*
G04 Layer_Color=32768*
%FSLAX25Y25*%
%MOIN*%
G70*
G04*
G04 #@! TF.SameCoordinates,EF30BACE-0BBC-42E6-AA2A-B86B67AF279B*
G04*
G04*
G04 #@! TF.FilePolarity,Positive*
G04*
G01*
G75*
%ADD11C,0.00787*%
%ADD46C,0.00197*%
%ADD47C,0.00394*%
D11*
X82087Y151279D02*
Y197343D01*
X34843Y151279D02*
X82087D01*
X34843D02*
Y197343D01*
X82087D01*
D46*
X139567Y117421D02*
X139547Y118418D01*
X139486Y119414D01*
X139385Y120406D01*
X139244Y121394D01*
X139063Y122374D01*
X138843Y123347D01*
X138583Y124310D01*
X138284Y125262D01*
X137947Y126201D01*
X137573Y127125D01*
X137161Y128033D01*
X136713Y128924D01*
X136229Y129796D01*
X135710Y130648D01*
X135157Y131478D01*
X134570Y132285D01*
X133952Y133068D01*
X133302Y133824D01*
X132622Y134554D01*
X131914Y135256D01*
X131177Y135928D01*
X130414Y136570D01*
X129625Y137181D01*
X128812Y137759D01*
X127977Y138303D01*
X127120Y138814D01*
X126243Y139289D01*
X125347Y139728D01*
X124435Y140131D01*
X123506Y140496D01*
X122564Y140823D01*
X121610Y141112D01*
X120644Y141362D01*
X119669Y141573D01*
X118687Y141744D01*
X117698Y141875D01*
X116705Y141966D01*
X115709Y142016D01*
X114711Y142026D01*
X113714Y141996D01*
X112720Y141925D01*
X111728Y141814D01*
X110742Y141663D01*
X109763Y141472D01*
X108793Y141242D01*
X107833Y140972D01*
X106884Y140664D01*
X105949Y140318D01*
X105028Y139934D01*
X104124Y139513D01*
X103238Y139056D01*
X102371Y138563D01*
X101524Y138035D01*
X100700Y137474D01*
X99899Y136879D01*
X99123Y136253D01*
X98373Y135596D01*
X97650Y134908D01*
X96955Y134193D01*
X96290Y133449D01*
X95656Y132679D01*
X95054Y131885D01*
X94484Y131066D01*
X93948Y130225D01*
X93446Y129363D01*
X92980Y128481D01*
X92550Y127581D01*
X92156Y126665D01*
X91801Y125733D01*
X91483Y124787D01*
X91203Y123830D01*
X90963Y122862D01*
X90763Y121885D01*
X90602Y120901D01*
X90481Y119911D01*
X90400Y118916D01*
X90359Y117920D01*
Y116922D01*
X90400Y115926D01*
X90481Y114932D01*
X90602Y113942D01*
X90763Y112958D01*
X90963Y111980D01*
X91204Y111012D01*
X91483Y110055D01*
X91801Y109110D01*
X92156Y108178D01*
X92550Y107261D01*
X92980Y106361D01*
X93446Y105480D01*
X93948Y104618D01*
X94484Y103777D01*
X95054Y102958D01*
X95656Y102163D01*
X96290Y101393D01*
X96955Y100650D01*
X97650Y99934D01*
X98373Y99247D01*
X99123Y98589D01*
X99899Y97963D01*
X100700Y97369D01*
X101524Y96807D01*
X102371Y96280D01*
X103238Y95787D01*
X104124Y95330D01*
X105028Y94909D01*
X105949Y94525D01*
X106884Y94178D01*
X107833Y93870D01*
X108793Y93600D01*
X109764Y93370D01*
X110742Y93179D01*
X111728Y93028D01*
X112720Y92917D01*
X113714Y92847D01*
X114711Y92816D01*
X115709Y92826D01*
X116705Y92877D01*
X117698Y92968D01*
X118687Y93099D01*
X119669Y93270D01*
X120644Y93480D01*
X121610Y93730D01*
X122564Y94019D01*
X123507Y94347D01*
X124435Y94712D01*
X125347Y95114D01*
X126243Y95554D01*
X127120Y96029D01*
X127977Y96539D01*
X128812Y97084D01*
X129625Y97662D01*
X130414Y98273D01*
X131177Y98914D01*
X131914Y99587D01*
X132622Y100288D01*
X133302Y101018D01*
X133952Y101775D01*
X134570Y102558D01*
X135157Y103365D01*
X135710Y104194D01*
X136229Y105046D01*
X136713Y105918D01*
X137161Y106809D01*
X137573Y107718D01*
X137947Y108642D01*
X138284Y109581D01*
X138583Y110532D01*
X138843Y111495D01*
X139063Y112468D01*
X139244Y113449D01*
X139385Y114436D01*
X139486Y115428D01*
X139547Y116424D01*
X139567Y117421D01*
D47*
X79725Y28445D02*
X84646D01*
Y36319D01*
X79725D02*
X84646D01*
X79725Y28445D02*
Y36319D01*
X25295Y55610D02*
Y63484D01*
X30216D01*
Y55610D02*
Y63484D01*
X25295Y55610D02*
X30216D01*
X137716Y144016D02*
Y207008D01*
X89685D02*
X137716D01*
X89685Y144016D02*
Y207008D01*
Y144016D02*
X137716D01*
X84547Y117618D02*
Y125492D01*
X79626D02*
X84547D01*
X79626Y117618D02*
Y125492D01*
Y117618D02*
X84547D01*
X83957Y75689D02*
Y83563D01*
X79036D02*
X83957D01*
X79036Y75689D02*
Y83563D01*
Y75689D02*
X83957D01*
X84351Y96555D02*
Y104429D01*
X79429D02*
X84351D01*
X79429Y96555D02*
Y104429D01*
Y96555D02*
X84351D01*
M02*
